<svg width="32" height="32" viewBox="0 0 32 32" fill="none" xmlns="http://www.w3.org/2000/svg">
<rect width="32" height="32" rx="16" fill="#3A7D44"/>
<path d="M12.55 16.0001C11.48 15.2901 10.3 14.7301 9.02002 14.3901C10.3 14.7301 11.48 15.2901 12.55 16.0001ZM22.98 14.3901C21.69 14.7301 20.49 15.3001 19.41 16.0301C20.49 15.3001 21.69 14.7301 22.98 14.3901Z" fill="white"/>
<path d="M19.49 13.63C19.31 10.84 18.18 8.12 16.06 6C13.92 8.14 12.74 10.86 12.51 13.63C13.79 14.31 14.97 15.19 16 16.26C17.03 15.2 18.21 14.32 19.49 13.63ZM12.99 16.28C12.85 16.18 12.69 16.09 12.54 15.99C12.69 16.1 12.85 16.18 12.99 16.28ZM19.41 16.03C19.28 16.12 19.14 16.19 19.01 16.29C19.14 16.19 19.28 16.12 19.41 16.03ZM16 19.45C13.85 16.17 10.18 14 6 14C6 19.32 9.36 23.82 14.03 25.49C14.66 25.72 15.32 25.89 16 26C16.68 25.88 17.33 25.71 17.97 25.49C22.64 23.82 26 19.32 26 14C21.82 14 18.15 16.17 16 19.45Z" fill="white"/>
</svg>
