<svg width="32" height="32" viewBox="0 0 32 32" fill="none" xmlns="http://www.w3.org/2000/svg">
<rect width="32" height="32" rx="16" fill="#007EA7"/>
<g clip-path="url(#clip0_3404_31247)">
<path d="M19.8907 25.2514C19.6211 25.2514 19.7573 24.746 19.7895 24.4748C19.8128 24.2806 19.8368 24.08 19.8443 23.8876C19.8731 23.1556 19.9061 22.3258 20.2526 21.6021C20.8995 20.2499 22.6124 19.4396 22.7065 17.9685C22.7121 17.877 22.7976 17.8061 22.8914 17.8226C24.7097 18.1372 26.7125 17.2395 27.6773 15.6837C27.3758 13.3678 26.9086 11.5237 26.2089 9.88385C25.8586 9.06301 25.4319 8.2448 24.6853 7.81731C24.1944 7.53608 23.6162 7.4772 23.1381 7.65945C21.901 8.13155 22.0147 9.74023 23.0432 9.97497C23.4295 10.0623 23.8828 9.92435 24.3156 10.0826C24.9545 10.3166 25.2031 11.0579 25.166 11.689C25.1461 12.0224 25.0666 12.3456 24.9894 12.6584C24.9287 12.9058 24.8653 13.1616 24.8353 13.4136C24.7798 13.8872 24.8773 14.5355 25.3366 14.8036C25.412 14.8475 25.4375 14.9446 25.3936 15.02C25.3494 15.0954 25.2523 15.1209 25.1773 15.077C24.5863 14.732 24.4509 13.9727 24.5214 13.3764C24.5537 13.1053 24.6189 12.8395 24.6823 12.5826C24.7595 12.2702 24.8323 11.9751 24.8503 11.6706C24.8795 11.173 24.6909 10.5566 24.2068 10.38C23.8483 10.2483 23.41 10.383 22.9731 10.2836C21.6374 9.97872 21.4964 7.94781 23.0252 7.36396C23.5911 7.14834 24.2698 7.21509 24.8424 7.54283C26.7953 8.66065 27.7095 13.4529 27.9986 15.6987C28.0031 15.734 27.9956 15.77 27.9773 15.8007C26.9881 17.445 24.9193 18.4192 23.005 18.1605C22.7774 19.7159 21.1514 20.4595 20.5387 21.739C20.1262 22.601 20.2174 23.5655 20.1045 24.5127C20.0396 25.0504 20.0944 25.2514 19.8907 25.2514Z" fill="#007EA7"/>
<path d="M21.598 16.6051C21.5909 16.6051 21.5837 16.6047 21.5766 16.6036C21.49 16.592 21.4293 16.5125 21.4409 16.4259C21.5451 15.6493 21.9175 14.9263 22.4897 14.3904C23.0612 13.8546 23.8067 13.5302 24.5889 13.4762C24.6751 13.4725 24.7512 13.5359 24.7576 13.6232C24.7636 13.7102 24.6976 13.786 24.6106 13.792C23.9113 13.84 23.2172 14.1422 22.7061 14.6214C22.1946 15.1007 21.8477 15.7738 21.7544 16.4679C21.7439 16.5473 21.676 16.6051 21.598 16.6051Z" fill="#007EA7"/>
<path d="M22.3892 14.8271C22.3408 14.8271 22.2928 14.805 22.2617 14.763C21.5177 13.755 20.449 14.172 19.7429 14.4476C19.0965 14.7004 18.453 14.7829 17.7158 14.565C17.5129 14.505 17.6089 14.2013 17.8054 14.2616C18.4654 14.457 19.0455 14.3801 19.6278 14.1529C20.3268 13.8803 21.628 13.3718 22.5163 14.5751C22.5681 14.6452 22.5534 14.7446 22.4829 14.7964C22.4548 14.817 22.4218 14.8271 22.3892 14.8271Z" fill="#007EA7"/>
<path d="M17.7298 14.5721C17.5948 14.5721 17.5213 14.4128 17.6102 14.3104C19.5739 12.0489 18.9942 9.56762 18.9395 8.68491C18.9342 8.59791 19.001 8.52291 19.088 8.51804C19.1738 8.51129 19.2503 8.57954 19.2552 8.66691C19.2908 9.28151 19.9849 12.0583 17.8494 14.5182C17.8179 14.5538 17.774 14.5721 17.7298 14.5721Z" fill="#007EA7"/>
<path d="M15.883 26.2451C14.5574 26.2451 13.2712 25.9072 12.0327 25.2315C11.9839 25.2049 11.9524 25.1542 11.9502 25.0988C11.9427 24.906 11.9191 24.7054 11.8958 24.5115C11.7829 23.5737 11.8759 22.604 11.4612 21.7378C11.2088 21.2098 10.7802 20.7699 10.3659 20.3443C10.2657 20.2416 10.166 20.1388 10.0681 20.035C9.62153 19.5599 9.1078 18.9258 8.99568 18.1589C7.07876 18.4165 5.0126 17.4431 4.02265 15.7992C4.00427 15.7684 3.99677 15.7328 4.00127 15.6972C4.30651 13.3258 4.78274 11.4388 5.49971 9.75817C5.85369 8.92871 6.3273 8.01675 7.15751 7.54127C8.51345 6.7643 10.0093 7.57539 10.0835 8.81134C10.1248 9.49156 9.66053 10.1377 9.0268 10.282C8.82319 10.3289 8.61845 10.324 8.4197 10.3191C8.19471 10.3143 7.98285 10.3086 7.79348 10.3784C7.30975 10.5554 7.12076 11.1715 7.15001 11.6691C7.18301 12.2316 7.40875 12.7813 7.47925 13.3745C7.55012 13.9704 7.41475 14.7301 6.8234 15.0751C6.74803 15.1189 6.65091 15.0934 6.60703 15.0181C6.56279 14.9427 6.58866 14.846 6.66403 14.8017C7.12376 14.5332 7.22163 13.8852 7.16538 13.4116C7.09826 12.848 6.8699 12.2867 6.83427 11.6871C6.79753 11.056 7.04614 10.3143 7.68511 10.0807C7.93035 9.99066 8.18347 9.99629 8.4272 10.0023C8.61507 10.0064 8.79169 10.0105 8.95668 9.97304C9.43554 9.86354 9.79964 9.35094 9.76815 8.82971C9.7074 7.82663 8.4647 7.15616 7.31463 7.81538C6.56766 8.24324 6.14093 9.06145 5.79107 9.88192C5.09135 11.5225 4.6245 13.3666 4.32263 15.6825C5.28747 17.2383 7.29025 18.1361 9.10817 17.8214C9.15205 17.8132 9.1978 17.8252 9.23304 17.8529C9.26829 17.8807 9.29004 17.9223 9.29304 17.9669C9.34104 18.7105 9.85589 19.3465 10.2984 19.8179C10.3947 19.9202 10.4937 20.0218 10.5924 20.1235C11.0247 20.5671 11.4713 21.0261 11.7466 21.6009C12.0934 22.3254 12.126 23.1548 12.1549 23.8868C12.1688 24.2475 12.2385 24.6199 12.2614 24.9956C14.6197 26.2522 17.1628 26.2368 19.8215 24.9503C20.0123 24.8603 20.1454 25.1452 19.9591 25.2352C18.5686 25.9083 17.2059 26.2447 15.883 26.2451Z" fill="#007EA7"/>
<path d="M10.4017 16.6046C10.3237 16.6046 10.2558 16.5468 10.2453 16.4677C10.1516 15.7732 9.80472 15.1001 9.29361 14.6209C8.77464 14.1349 8.09817 13.8405 7.38907 13.7914C7.30208 13.7854 7.23608 13.7097 7.24208 13.6227C7.24808 13.5353 7.32382 13.4727 7.41082 13.4757C8.19266 13.5297 8.93813 13.854 9.50998 14.3899C10.0815 14.9258 10.4542 15.6487 10.5588 16.4249C10.5704 16.5116 10.5101 16.5911 10.4231 16.6031C10.4156 16.6042 10.4088 16.6046 10.4017 16.6046Z" fill="#007EA7"/>
<path d="M9.61007 14.825C9.57744 14.825 9.54407 14.8149 9.51595 14.7943C9.44545 14.7425 9.43082 14.6431 9.48257 14.573C10.3705 13.3704 11.6717 13.8778 12.3711 14.1508C12.9395 14.3724 13.5204 14.459 14.1939 14.2595C14.2767 14.234 14.3656 14.2824 14.3904 14.3664C14.4151 14.4504 14.3671 14.5381 14.2835 14.5629C13.544 14.7819 12.9013 14.6975 12.256 14.4455C11.5495 14.1699 10.4815 13.7537 9.73719 14.7609C9.70644 14.8029 9.65881 14.825 9.61007 14.825Z" fill="#007EA7"/>
<path d="M14.2692 14.5719C14.225 14.5719 14.1811 14.5535 14.1496 14.5175C12.8788 13.0539 12.3313 10.9675 12.7194 9.06861C12.7254 7.75879 13.4165 6.73471 14.6179 6.25736C15.9578 5.72525 17.5893 6.03949 18.4986 7.00395C18.9216 7.4528 19.1759 8.00853 19.2542 8.6565C19.2797 8.86574 18.9651 8.89949 18.9404 8.69437C18.8702 8.11502 18.6445 7.61967 18.2688 7.22106C17.4446 6.34735 15.9581 6.06574 14.7349 6.55134C13.6554 6.97995 13.0363 7.90353 13.0363 9.08473C13.0363 9.09561 13.0351 9.10611 13.0329 9.11698C12.6583 10.9255 13.1776 12.9156 14.3892 14.3101C14.4462 14.3761 14.4391 14.4759 14.3734 14.5332C14.3431 14.5591 14.3059 14.5719 14.2692 14.5719Z" fill="#007EA7"/>
<path d="M19.5751 17.4897C19.4322 16.3464 19.7307 15.1817 19.994 14.1539C20.0461 13.9506 20.3521 14.0309 20.3003 14.2322C20.0315 15.2814 19.7532 16.3663 19.8886 17.4504C20 18.3417 20.5205 19.512 21.6207 19.8772C21.7039 19.9046 21.7485 19.9942 21.7211 20.0775C21.5955 20.4577 19.838 19.5893 19.5751 17.4897Z" fill="#007EA7"/>
<path d="M10.717 20.8133C10.6563 20.8133 10.5985 20.778 10.5723 20.7191C10.5367 20.6393 10.573 20.5459 10.6529 20.5103C12.0246 19.9024 13.2017 18.2367 12.6099 14.4847C12.5769 14.2765 12.8908 14.2319 12.9227 14.4355C13.0922 15.5106 13.2257 16.7739 12.9306 17.9923C12.6152 19.2934 11.8112 20.343 10.7808 20.7998C10.7601 20.8091 10.7388 20.8133 10.717 20.8133Z" fill="#007EA7"/>
<path d="M15.9492 18.0738C14.3075 17.6782 13.8238 15.8085 13.5268 14.5838C13.5066 14.499 13.5587 14.4135 13.6434 14.3929C13.7293 14.3727 13.8141 14.4244 13.8347 14.5095C14.0469 15.3859 14.4632 17.3902 16.0235 17.7666C16.7783 17.9493 17.6775 17.5938 18.2077 16.9016C18.6844 16.2795 18.8985 15.4215 18.8092 14.4855C18.8013 14.3985 18.8647 14.3213 18.9521 14.313C19.0335 14.3029 19.1163 14.3682 19.1246 14.4555C19.221 15.4714 18.9847 16.4085 18.4586 17.0939C17.8519 17.8859 16.8466 18.2905 15.9492 18.0738Z" fill="#007EA7"/>
<path d="M14.1817 14.5113C14.124 14.4457 14.13 14.346 14.1956 14.2882C14.2601 14.2305 14.3602 14.2361 14.4191 14.3021C15.4975 15.5227 16.7031 15.3779 17.6799 14.1345C17.7339 14.0659 17.8344 14.0542 17.9019 14.1079C17.9709 14.1619 17.9825 14.2612 17.9289 14.3302C16.8377 15.7177 15.4008 15.8898 14.1817 14.5113Z" fill="#007EA7"/>
<path d="M19.5295 25.2083L17.5323 23.2115C17.5016 23.1807 17.5016 23.1305 17.5323 23.0997C17.5631 23.069 17.6133 23.069 17.6441 23.0997L19.6412 25.0965C19.7151 25.1704 19.6034 25.2821 19.5295 25.2083Z" fill="#007EA7"/>
<path d="M19.8707 24.091C19.8505 24.091 19.8302 24.0831 19.8148 24.0677L18.274 22.5269C18.2433 22.4961 18.2433 22.4459 18.274 22.4152C18.3048 22.3844 18.355 22.3844 18.3858 22.4152L19.9266 23.956C19.9573 23.9867 19.9573 24.037 19.9266 24.0677C19.9112 24.0831 19.891 24.091 19.8707 24.091Z" fill="#007EA7"/>
<path d="M20.0858 22.2576L19.0441 21.2159C19.0133 21.1851 19.0133 21.1349 19.0441 21.1041C19.0748 21.0734 19.1251 21.0734 19.1558 21.1041L20.1975 22.1458C20.2283 22.1766 20.2283 22.2268 20.1975 22.2576C20.1668 22.2883 20.1169 22.2887 20.0858 22.2576Z" fill="#007EA7"/>
<path d="M20.4502 21.3068C20.4299 21.3068 20.4097 21.2989 20.3943 21.2835L19.7565 20.646C19.7257 20.6153 19.7257 20.565 19.7565 20.5343C19.7872 20.5035 19.8375 20.5035 19.8682 20.5343L20.5061 21.1718C20.5368 21.2025 20.5368 21.2528 20.5061 21.2835C20.4907 21.2989 20.4704 21.3068 20.4502 21.3068Z" fill="#007EA7"/>
<path d="M20.7319 20.6234L20.0704 19.962C20.0397 19.9312 20.0397 19.881 20.0704 19.8502C20.1012 19.8195 20.1514 19.8195 20.1822 19.8502L20.8436 20.5117C20.8744 20.5424 20.8744 20.5927 20.8436 20.6234C20.8129 20.6542 20.7626 20.6545 20.7319 20.6234Z" fill="#007EA7"/>
<path d="M19.6891 22.9561L18.4527 21.7198C18.422 21.689 18.422 21.6388 18.4527 21.608C18.4835 21.5773 18.5337 21.5773 18.5645 21.608L19.8008 22.8443C19.8751 22.9182 19.7626 23.0296 19.6891 22.9561Z" fill="#007EA7"/>
<path d="M18.4282 25.3593L16.6695 23.6006C16.6388 23.5699 16.6388 23.5196 16.6695 23.4889C16.7003 23.4581 16.7505 23.4581 16.7813 23.4889L18.54 25.2476C18.5707 25.2783 18.5707 25.3286 18.54 25.3593C18.5092 25.39 18.4593 25.3904 18.4282 25.3593Z" fill="#007EA7"/>
<path d="M17.399 25.5542L15.8004 23.9556C15.7697 23.9249 15.7697 23.8746 15.8004 23.8439C15.8312 23.8131 15.8814 23.8131 15.9121 23.8439L17.5107 25.4424C17.585 25.5163 17.4725 25.6277 17.399 25.5542Z" fill="#007EA7"/>
<path d="M15.9189 25.7919L14.4576 24.3306C14.4269 24.2999 14.4269 24.2496 14.4576 24.2189C14.4884 24.1881 14.5386 24.1881 14.5694 24.2189L16.0307 25.6802C16.0614 25.7109 16.0614 25.7612 16.0307 25.7919C15.9999 25.8227 15.9497 25.823 15.9189 25.7919Z" fill="#007EA7"/>
<path d="M14.6319 25.5593C14.5809 25.5593 13.5066 24.4666 13.4698 24.4302C13.4391 24.3995 13.4391 24.3492 13.4698 24.3185C13.5006 24.2877 13.5508 24.2877 13.5816 24.3185L14.6878 25.4247C14.7185 25.4554 14.7185 25.5057 14.6878 25.5364C14.6724 25.5518 14.6525 25.5593 14.6319 25.5593Z" fill="#007EA7"/>
<path d="M13.5928 25.3427L12.8185 24.5684C12.7877 24.5377 12.7877 24.4874 12.8185 24.4567C12.8492 24.4259 12.8995 24.4259 12.9302 24.4567L13.7046 25.231C13.7353 25.2617 13.7353 25.312 13.7046 25.3427C13.6742 25.3735 13.6239 25.3739 13.5928 25.3427Z" fill="#007EA7"/>
<path d="M12.7436 25.1249L12.3053 24.6866C12.2745 24.6558 12.2745 24.6056 12.3053 24.5748C12.336 24.5441 12.3863 24.5441 12.417 24.5748L12.8554 25.0132C12.9296 25.087 12.8171 25.1984 12.7436 25.1249Z" fill="#007EA7"/>
<path d="M12.3839 25.279C12.3532 25.2482 12.3532 25.198 12.3839 25.1672L13.3337 24.2174C13.3645 24.1866 13.4147 24.1866 13.4455 24.2174C13.4762 24.2481 13.4762 24.2984 13.4455 24.3291L12.4956 25.279C12.4649 25.3097 12.415 25.3101 12.3839 25.279Z" fill="#007EA7"/>
<path d="M13.2331 25.404L14.3063 24.3312C14.337 24.3004 14.3873 24.3004 14.418 24.3312C14.4488 24.3619 14.4488 24.4122 14.418 24.4429L13.3448 25.5157C13.2709 25.59 13.1596 25.4775 13.2331 25.404Z" fill="#007EA7"/>
<path d="M13.9836 25.5816L15.8083 23.7569C15.839 23.7262 15.8893 23.7262 15.92 23.7569C15.9508 23.7877 15.9508 23.8379 15.92 23.8687L14.0953 25.6934C14.0211 25.7676 13.9101 25.6551 13.9836 25.5816Z" fill="#007EA7"/>
<path d="M15.1687 25.78L17.2768 23.6715C17.3076 23.6408 17.3578 23.6408 17.3886 23.6715C17.4193 23.7022 17.4193 23.7525 17.3886 23.7832L15.2804 25.8918C15.2062 25.966 15.0952 25.8535 15.1687 25.78Z" fill="#007EA7"/>
<path d="M16.4919 25.9577L18.6458 23.8038C18.6765 23.7731 18.7268 23.7731 18.7575 23.8038C18.7883 23.8346 18.7883 23.8848 18.7575 23.9156L16.6036 26.0695C16.5297 26.1437 16.4184 26.0312 16.4919 25.9577Z" fill="#007EA7"/>
<path d="M18.3878 25.0692L19.6248 23.8321C19.6556 23.8014 19.7058 23.8014 19.7366 23.8321C19.7673 23.8629 19.7673 23.9131 19.7366 23.9439L18.4995 25.181C18.426 25.2545 18.3132 25.1435 18.3878 25.0692Z" fill="#007EA7"/>
<path d="M17.9696 23.881C17.9493 23.881 17.9291 23.8732 17.9137 23.8578C17.8829 23.827 17.8829 23.7768 17.9137 23.7461L19.6499 22.0099C19.6806 21.9791 19.7309 21.9791 19.7616 22.0099C19.7924 22.0406 19.7924 22.0909 19.7616 22.1216L18.0254 23.8578C18.0101 23.8735 17.9898 23.881 17.9696 23.881Z" fill="#007EA7"/>
<path d="M18.4437 22.222C18.4234 22.222 18.4032 22.2141 18.3878 22.1987C18.3571 22.168 18.3571 22.1177 18.3878 22.087L19.5338 20.941C19.5645 20.9103 19.6148 20.9103 19.6455 20.941C19.6763 20.9718 19.6763 21.022 19.6455 21.0528L18.4996 22.1987C18.4842 22.2141 18.4639 22.222 18.4437 22.222Z" fill="#007EA7"/>
<path d="M20.0233 21.2742C20.003 21.2742 19.9828 21.2663 19.9674 21.251C19.9366 21.2202 19.9366 21.17 19.9674 21.1392L20.7095 20.3971C20.783 20.3236 20.8955 20.435 20.8212 20.5089L20.0791 21.251C20.0638 21.2663 20.0435 21.2742 20.0233 21.2742Z" fill="#007EA7"/>
<path d="M19.9642 20.3254C19.9439 20.3254 19.9237 20.3176 19.9083 20.3022C19.8776 20.2714 19.8776 20.2212 19.9083 20.1904L20.3523 19.7468C20.3834 19.7157 20.4337 19.7161 20.464 19.7468C20.4948 19.7776 20.4948 19.8278 20.464 19.8586L20.0201 20.3022C20.0047 20.3176 19.9841 20.3254 19.9642 20.3254Z" fill="#007EA7"/>
<path d="M23.5047 18.0951L22.9171 17.5079C22.8864 17.4771 22.8864 17.4269 22.9171 17.3961C22.9479 17.3654 22.9981 17.3654 23.0288 17.3961L23.6164 17.9833C23.6907 18.0576 23.5782 18.1689 23.5047 18.0951Z" fill="#007EA7"/>
<path d="M24.1754 17.7945L23.5792 17.1983C23.5485 17.1675 23.5485 17.1173 23.5792 17.0865C23.61 17.0558 23.6602 17.0558 23.691 17.0865L24.2872 17.6828C24.3179 17.7135 24.3179 17.7638 24.2872 17.7945C24.2568 17.8253 24.2066 17.8256 24.1754 17.7945Z" fill="#007EA7"/>
<path d="M25.1489 17.5985L24.4615 16.9112C24.4308 16.8804 24.4308 16.8302 24.4615 16.7994C24.4923 16.7687 24.5425 16.7687 24.5733 16.7994L25.2606 17.4868C25.2914 17.5175 25.2914 17.5678 25.2606 17.5985C25.2299 17.6293 25.18 17.6296 25.1489 17.5985Z" fill="#007EA7"/>
<path d="M26.0388 17.1535C25.9859 17.1535 25.5142 16.6619 25.4767 16.6241C25.4459 16.5933 25.4459 16.5431 25.4767 16.5123C25.5074 16.4816 25.5577 16.4816 25.5884 16.5123L26.0946 17.0185C26.1445 17.068 26.1089 17.1535 26.0388 17.1535Z" fill="#007EA7"/>
<path d="M26.7022 16.4386L26.0944 15.8311C26.0636 15.8003 26.0636 15.7501 26.0944 15.7194C26.1251 15.6886 26.1753 15.6886 26.2061 15.7194L26.8139 16.3268C26.8882 16.4007 26.7757 16.5121 26.7022 16.4386Z" fill="#007EA7"/>
<path d="M27.1436 15.6551C27.1233 15.6551 27.1031 15.6472 27.0877 15.6318L26.2931 14.8373C26.2196 14.7638 26.331 14.6513 26.4049 14.7255L27.1995 15.5201C27.2302 15.5509 27.2302 15.6011 27.1995 15.6318C27.1841 15.6472 27.1635 15.6551 27.1436 15.6551Z" fill="#007EA7"/>
<path d="M27.2785 14.8863C27.2583 14.8863 27.238 14.8785 27.2227 14.8631L26.4037 14.0437C26.3294 13.9695 26.4423 13.8581 26.5154 13.932L27.3344 14.751C27.3651 14.7817 27.3651 14.832 27.3344 14.8627C27.319 14.8785 27.2988 14.8863 27.2785 14.8863Z" fill="#007EA7"/>
<path d="M27.1116 13.4385C27.0587 13.4385 26.6174 12.9773 26.5802 12.9398C26.5067 12.8663 26.6181 12.7538 26.692 12.8281L27.1675 13.3035C27.1982 13.3343 27.1982 13.3845 27.1675 13.4153C27.1521 13.431 27.1322 13.4385 27.1116 13.4385Z" fill="#007EA7"/>
<path d="M26.9661 12.4439L26.4914 11.9696C26.4179 11.8961 26.5292 11.7836 26.6031 11.8578L27.0778 12.3322C27.1086 12.3629 27.1086 12.4132 27.0778 12.4439C27.0471 12.4747 26.9972 12.4751 26.9661 12.4439Z" fill="#007EA7"/>
<path d="M26.7564 11.55L26.3815 11.175C26.3507 11.1442 26.3507 11.094 26.3815 11.0632C26.4122 11.0325 26.4621 11.0321 26.4932 11.0632L26.8682 11.4382C26.8989 11.469 26.8989 11.5192 26.8682 11.55C26.8378 11.5807 26.7876 11.5811 26.7564 11.55Z" fill="#007EA7"/>
<path d="M26.5927 10.9448L26.1832 10.5353C26.1525 10.5046 26.1525 10.4543 26.1832 10.4236C26.2143 10.3925 26.2646 10.3928 26.295 10.4236L26.7044 10.8331C26.7352 10.8638 26.7352 10.9141 26.7044 10.9448C26.6741 10.9752 26.6238 10.9759 26.5927 10.9448Z" fill="#007EA7"/>
<path d="M22.8288 17.8315L23.5679 17.0924C23.5986 17.0616 23.6489 17.0616 23.6796 17.0924C23.7104 17.1231 23.7104 17.1734 23.6796 17.2041L22.9405 17.9432C22.8666 18.0175 22.7553 17.905 22.8288 17.8315Z" fill="#007EA7"/>
<path d="M23.5656 17.881L25.0266 16.42C25.0573 16.3893 25.1076 16.3893 25.1383 16.42C25.1691 16.4508 25.1691 16.501 25.1383 16.5318L23.6774 17.9927C23.6031 18.067 23.4921 17.9545 23.5656 17.881Z" fill="#007EA7"/>
<path d="M24.7191 17.9504C24.6988 17.9504 24.6786 17.9425 24.6632 17.9272C24.6324 17.8964 24.6324 17.8462 24.6632 17.8154L26.171 16.3072C26.2018 16.2765 26.252 16.2765 26.2828 16.3072C26.3135 16.338 26.3135 16.3882 26.2828 16.419L24.7749 17.9272C24.7596 17.9425 24.7393 17.9504 24.7191 17.9504Z" fill="#007EA7"/>
<path d="M26.235 16.6511C26.2042 16.6203 26.2042 16.5701 26.235 16.5393L27.3738 15.4005C27.4045 15.3698 27.4548 15.3698 27.4855 15.4005C27.5163 15.4313 27.5163 15.4815 27.4855 15.5122L26.3467 16.6511C26.3163 16.6818 26.2661 16.6822 26.235 16.6511Z" fill="#007EA7"/>
<path d="M26.4383 15.5767C26.4181 15.5767 26.3978 15.5688 26.3824 15.5534C26.3517 15.5227 26.3517 15.4724 26.3824 15.4417L27.177 14.6471C27.2078 14.6163 27.258 14.6163 27.2888 14.6471C27.3195 14.6778 27.3195 14.7281 27.2888 14.7588L26.4942 15.5534C26.4788 15.5688 26.4589 15.5767 26.4383 15.5767Z" fill="#007EA7"/>
<path d="M26.4313 14.4422L27.0808 13.7927C27.155 13.7189 27.2664 13.831 27.1925 13.9045L26.5431 14.554C26.4692 14.6286 26.3578 14.5161 26.4313 14.4422Z" fill="#007EA7"/>
<path d="M26.5299 13.427L27.0549 12.902C27.1284 12.8285 27.2409 12.9399 27.1667 13.0138L26.6417 13.5387C26.5678 13.613 26.4564 13.5005 26.5299 13.427Z" fill="#007EA7"/>
<path d="M26.5138 12.3603C26.483 12.3295 26.483 12.2793 26.5138 12.2485L26.852 11.9103C26.9255 11.8368 27.038 11.9482 26.9638 12.0221L26.6255 12.3603C26.5948 12.3907 26.5449 12.391 26.5138 12.3603Z" fill="#007EA7"/>
<path d="M26.3664 11.4782L26.801 11.0436C26.8318 11.0128 26.882 11.0128 26.9128 11.0436C26.9435 11.0743 26.9435 11.1246 26.9128 11.1553L26.4782 11.5899C26.4039 11.6642 26.2929 11.5517 26.3664 11.4782Z" fill="#007EA7"/>
<path d="M26.3266 11.1403C26.3266 11.0341 26.3007 10.8901 26.4057 10.8901C26.5107 10.8901 26.4848 11.0341 26.4848 11.1403C26.4848 11.2445 26.3266 11.2449 26.3266 11.1403Z" fill="#007EA7"/>
<path d="M26.219 10.8197C26.1443 10.7451 26.2673 10.6596 26.3442 10.5827C26.4177 10.5092 26.5302 10.6202 26.4559 10.6945L26.3307 10.8197C26.3 10.8505 26.2497 10.8508 26.219 10.8197Z" fill="#007EA7"/>
<path d="M18.1459 15.0352C18.1256 15.0352 18.1054 15.0273 18.09 15.0119L17.5973 14.5196C17.5665 14.4888 17.5665 14.4386 17.5973 14.4078C17.628 14.3771 17.6783 14.3771 17.709 14.4078L18.2018 14.9002C18.2325 14.9309 18.2325 14.9812 18.2018 15.0119C18.1864 15.0273 18.1661 15.0352 18.1459 15.0352Z" fill="#007EA7"/>
<path d="M17.8337 15.5585L17.2262 14.951C17.1527 14.8775 17.2641 14.765 17.338 14.8393L17.9454 15.4468C17.9762 15.4775 17.9762 15.5278 17.9454 15.5585C17.9147 15.5893 17.8648 15.5896 17.8337 15.5585Z" fill="#007EA7"/>
<path d="M17.142 15.922L16.5871 15.367C16.5136 15.2935 16.6249 15.1811 16.6988 15.2553L17.2538 15.8103C17.2845 15.841 17.2845 15.8913 17.2538 15.922C17.223 15.9528 17.1732 15.9531 17.142 15.922Z" fill="#007EA7"/>
<path d="M16.5935 16.1912L15.9928 15.5909C15.962 15.5601 15.962 15.5099 15.9928 15.4791C16.0235 15.4484 16.0738 15.4484 16.1045 15.4791L16.7053 16.0795C16.7795 16.1533 16.667 16.2647 16.5935 16.1912Z" fill="#007EA7"/>
<path d="M16.2379 16.3565L15.2941 15.4126C15.2633 15.3819 15.2633 15.3316 15.2941 15.3009C15.3248 15.2701 15.3751 15.2701 15.4058 15.3009L16.3496 16.2447C16.4239 16.3186 16.3114 16.43 16.2379 16.3565Z" fill="#007EA7"/>
<path d="M17.2601 17.2735L16.5724 16.5858C16.4989 16.5123 16.6103 16.3998 16.6842 16.474L17.3719 17.1618C17.4461 17.2356 17.3336 17.347 17.2601 17.2735Z" fill="#007EA7"/>
<path d="M17.7471 16.9435L17.3002 16.4965C17.2263 16.4226 17.3377 16.3105 17.4119 16.3847L17.8589 16.8317C17.8896 16.8625 17.8896 16.9127 17.8589 16.9435C17.8285 16.9738 17.7786 16.9746 17.7471 16.9435Z" fill="#007EA7"/>
<path d="M18.0672 16.5773C18.0151 16.5773 17.6344 16.1776 17.5973 16.1405C17.5238 16.067 17.6352 15.9545 17.7091 16.0287L18.1227 16.4423C18.1534 16.4731 18.1534 16.5233 18.1227 16.5541C18.1077 16.5695 18.0874 16.5773 18.0672 16.5773Z" fill="#007EA7"/>
<path d="M18.4543 16.0749L18.1622 15.7828C18.1315 15.752 18.1315 15.7018 18.1622 15.671C18.193 15.6403 18.2432 15.6403 18.274 15.671L18.5661 15.9631C18.6407 16.0374 18.5282 16.1487 18.4543 16.0749Z" fill="#007EA7"/>
<path d="M18.7852 15.2862H18.3521C18.3086 15.2862 18.2729 15.2509 18.2729 15.2071C18.2729 15.1632 18.3086 15.1279 18.3521 15.1279H18.7852C18.8287 15.1279 18.8643 15.1632 18.8643 15.2071C18.8643 15.2509 18.8287 15.2862 18.7852 15.2862Z" fill="#007EA7"/>
<path d="M16.1857 15.969L17.4456 14.7091C17.4763 14.6783 17.5266 14.6783 17.5573 14.7091C17.5881 14.7398 17.5881 14.7901 17.5573 14.8208L16.2974 16.0808C16.2239 16.1547 16.1122 16.0429 16.1857 15.969Z" fill="#007EA7"/>
<path d="M16.7951 16.7117L17.926 15.5807C17.9995 15.5072 18.112 15.6186 18.0378 15.6925L16.9072 16.8234C16.8329 16.8977 16.7216 16.7852 16.7951 16.7117Z" fill="#007EA7"/>
<path d="M17.8319 16.8177C17.8116 16.8177 17.7914 16.8099 17.776 16.7945C17.7452 16.7637 17.7452 16.7135 17.776 16.6827L18.3017 16.1574C18.3752 16.0839 18.4877 16.1953 18.4135 16.2691L17.8877 16.7945C17.8724 16.8099 17.8521 16.8177 17.8319 16.8177Z" fill="#007EA7"/>
<path d="M17.2706 15.6191C17.2399 15.5884 17.2399 15.5381 17.2706 15.5074L18.0093 14.7687C18.0401 14.7379 18.0903 14.7379 18.1211 14.7687C18.1518 14.7994 18.1518 14.8497 18.1211 14.8804L17.3824 15.6191C17.3516 15.6499 17.3017 15.6503 17.2706 15.6191Z" fill="#007EA7"/>
<path d="M18.3665 15.3464C18.3463 15.3464 18.326 15.3385 18.3107 15.3231C18.2799 15.2924 18.2799 15.2421 18.3107 15.2114L18.8236 14.6984C18.8971 14.6249 19.0096 14.7363 18.9354 14.8101L18.4224 15.3227C18.407 15.3385 18.3872 15.3464 18.3665 15.3464Z" fill="#007EA7"/>
<path d="M8.5042 10.2796C8.48395 10.2796 8.4637 10.2717 8.44833 10.2564L7.90685 9.71488C7.8761 9.68414 7.8761 9.63389 7.90685 9.60314C7.9376 9.57239 7.98785 9.57239 8.0186 9.60314L8.56007 10.1446C8.59082 10.1754 8.59082 10.2256 8.56007 10.2564C8.5447 10.2721 8.52482 10.2796 8.5042 10.2796Z" fill="#007EA7"/>
<path d="M9.06426 9.90803C9.04401 9.90803 9.02376 9.90016 9.00839 9.88478L8.49279 9.36918C8.46204 9.33843 8.46204 9.28819 8.49279 9.25744C8.52354 9.22669 8.57378 9.22669 8.60453 9.25744L9.12014 9.77304C9.15088 9.80379 9.15088 9.85404 9.12014 9.88478C9.10476 9.90016 9.08489 9.90803 9.06426 9.90803Z" fill="#007EA7"/>
<path d="M9.50287 9.5649C9.48262 9.5649 9.46237 9.55703 9.447 9.54165L8.98839 9.08305C8.95764 9.0523 8.95764 9.00205 8.98839 8.9713C9.01914 8.94056 9.06939 8.94056 9.10014 8.9713L9.55874 9.42991C9.58949 9.46066 9.58949 9.51091 9.55874 9.54165C9.54337 9.5574 9.52312 9.5649 9.50287 9.5649Z" fill="#007EA7"/>
<path d="M9.69868 9.22165C9.67843 9.22165 9.65818 9.21378 9.64281 9.1984L9.16808 8.72367C9.13733 8.69292 9.13733 8.64268 9.16808 8.61193C9.19883 8.58118 9.24908 8.58118 9.27983 8.61193L9.75456 9.08666C9.7853 9.11741 9.7853 9.16765 9.75456 9.1984C9.73918 9.21378 9.71893 9.22165 9.69868 9.22165Z" fill="#007EA7"/>
<path d="M9.75823 8.54501C9.73798 8.54501 9.71773 8.53713 9.70235 8.52176L9.34875 8.16815C9.318 8.1374 9.318 8.08715 9.34875 8.05641C9.37987 8.02528 9.43012 8.02566 9.46049 8.05641L9.8141 8.41001C9.84485 8.44076 9.84485 8.49101 9.8141 8.52176C9.79873 8.53751 9.77848 8.54501 9.75823 8.54501Z" fill="#007EA7"/>
<path d="M8.17268 9.99347C8.15244 9.99347 8.13219 9.9856 8.11681 9.97022C8.08606 9.93947 8.08606 9.88923 8.11681 9.85848L9.16414 8.81115C9.19489 8.7804 9.24514 8.7804 9.27589 8.81115C9.30663 8.8419 9.30663 8.89214 9.27589 8.92289L8.22856 9.97022C8.21318 9.98597 8.19293 9.99347 8.17268 9.99347Z" fill="#007EA7"/>
<path d="M9.13411 9.82735C9.11386 9.82735 9.09361 9.81948 9.07824 9.8041C9.04749 9.77335 9.04749 9.72311 9.07824 9.69236L9.74983 9.02076C9.78096 8.98964 9.8312 8.99001 9.86158 9.02076C9.89233 9.05151 9.89233 9.10176 9.86158 9.13251L9.18998 9.8041C9.17461 9.81985 9.15436 9.82735 9.13411 9.82735Z" fill="#007EA7"/>
<path d="M9.40462 8.56653C9.38437 8.56653 9.36412 8.55865 9.34875 8.54328C9.318 8.51253 9.318 8.46228 9.34875 8.43153L9.70948 8.07042C9.74023 8.03968 9.79048 8.03968 9.82122 8.07042C9.85197 8.10117 9.85197 8.15142 9.82122 8.18217L9.46049 8.54328C9.44512 8.55903 9.42524 8.56653 9.40462 8.56653Z" fill="#007EA7"/>
<path d="M11.0471 20.0459L10.3912 19.3897C10.3605 19.3589 10.3605 19.3087 10.3912 19.2779C10.422 19.2472 10.4722 19.2472 10.503 19.2779L11.1588 19.9342C11.1896 19.9649 11.1896 20.0152 11.1588 20.0459C11.1284 20.0763 11.0786 20.077 11.0471 20.0459Z" fill="#007EA7"/>
<path d="M11.5809 19.8504L10.8287 19.0982C10.798 19.0674 10.798 19.0172 10.8287 18.9864C10.8595 18.9557 10.9097 18.9557 10.9405 18.9864L11.6927 19.7387C11.7669 19.8125 11.6544 19.9239 11.5809 19.8504Z" fill="#007EA7"/>
<path d="M11.9558 19.0721L11.3985 18.5148C11.3678 18.4841 11.3678 18.4338 11.3985 18.4031C11.4297 18.372 11.4799 18.3723 11.5103 18.4031L12.0675 18.9607C12.0983 18.9914 12.0983 19.0417 12.0675 19.0724C12.0371 19.1028 11.9869 19.1036 11.9558 19.0721Z" fill="#007EA7"/>
<path d="M12.303 18.3665C12.2828 18.3665 12.2625 18.3587 12.2472 18.3433L11.6896 17.7857C11.6588 17.7549 11.6588 17.7047 11.6896 17.6739C11.7203 17.6432 11.7706 17.6432 11.8013 17.6739L12.3589 18.2315C12.3897 18.2623 12.3897 18.3125 12.3589 18.3433C12.3435 18.3587 12.3233 18.3665 12.303 18.3665Z" fill="#007EA7"/>
<path d="M12.751 17.6137L12.3531 17.2159C12.3224 17.1851 12.3224 17.1349 12.3531 17.1041C12.3839 17.0734 12.4341 17.0734 12.4649 17.1041L12.8627 17.502C12.8935 17.5327 12.8935 17.583 12.8627 17.6137C12.832 17.6445 12.7821 17.6448 12.751 17.6137Z" fill="#007EA7"/>
<path d="M12.8868 16.8943C12.8666 16.8943 12.8463 16.8864 12.8309 16.871L12.486 16.5261C12.4552 16.4953 12.4552 16.4451 12.486 16.4143C12.5167 16.3836 12.5669 16.3832 12.5977 16.4143L12.9427 16.7593C12.9734 16.79 12.9734 16.8403 12.9427 16.871C12.9269 16.8868 12.9071 16.8943 12.8868 16.8943Z" fill="#007EA7"/>
<path d="M11.787 19.4739L11.2657 18.9527C11.235 18.9219 11.235 18.8717 11.2657 18.8409C11.2965 18.8102 11.3467 18.8102 11.3775 18.8409L11.8987 19.3622C11.9295 19.3929 11.9295 19.4432 11.8987 19.4739C11.868 19.5047 11.8181 19.505 11.787 19.4739Z" fill="#007EA7"/>
<path d="M10.2611 19.8642C10.2408 19.8642 10.2206 19.8564 10.2052 19.841C10.1744 19.8102 10.1744 19.76 10.2052 19.7292L11.071 18.8634C11.1018 18.8326 11.152 18.8326 11.1828 18.8634C11.2135 18.8941 11.2135 18.9444 11.1828 18.9751L10.3169 19.841C10.3016 19.8564 10.2813 19.8642 10.2611 19.8642Z" fill="#007EA7"/>
<path d="M10.8045 20.2487C10.7843 20.2487 10.764 20.2409 10.7486 20.2255C10.7179 20.1947 10.7179 20.1445 10.7486 20.1138L11.604 19.2584C11.6347 19.2277 11.685 19.2277 11.7157 19.2584C11.7465 19.2892 11.7465 19.3394 11.7157 19.3702L10.8604 20.2255C10.845 20.2409 10.8248 20.2487 10.8045 20.2487Z" fill="#007EA7"/>
<path d="M11.5309 18.8731C11.5001 18.8423 11.5001 18.7921 11.5309 18.7613L12.1143 18.1778C12.1451 18.1471 12.1953 18.1471 12.2261 18.1778C12.2568 18.2086 12.2568 18.2588 12.2261 18.2896L11.6426 18.8731C11.6122 18.9038 11.562 18.9042 11.5309 18.8731Z" fill="#007EA7"/>
<path d="M11.7454 17.9811C11.7252 17.9811 11.7049 17.9732 11.6896 17.9578C11.6588 17.9271 11.6588 17.8768 11.6896 17.8461L12.1868 17.3492C12.2175 17.3185 12.2678 17.3185 12.2985 17.3492C12.3293 17.38 12.3293 17.4302 12.2985 17.461L11.8013 17.9578C11.7859 17.9732 11.7657 17.9811 11.7454 17.9811Z" fill="#007EA7"/>
<path d="M12.3158 18.0738C12.2955 18.0738 12.2753 18.0659 12.2599 18.0505C12.2291 18.0198 12.2291 17.9695 12.2599 17.9388L12.5801 17.6189C12.6112 17.5878 12.6615 17.5882 12.6919 17.6189C12.7226 17.6497 12.7226 17.6999 12.6919 17.7307L12.3716 18.0505C12.3562 18.0663 12.336 18.0738 12.3158 18.0738Z" fill="#007EA7"/>
<path d="M12.3558 16.9473C12.3355 16.9473 12.3153 16.9394 12.2999 16.9241C12.2692 16.8933 12.2692 16.8431 12.2999 16.8123L12.4743 16.6379C12.505 16.6072 12.5549 16.6068 12.586 16.6379C12.6168 16.6687 12.6168 16.7189 12.586 16.7497L12.4117 16.9241C12.3963 16.9398 12.376 16.9473 12.3558 16.9473Z" fill="#007EA7"/>
<path d="M18.7989 11.7608L17.1876 10.1495C17.1569 10.1187 17.1569 10.0685 17.1876 10.0377C17.2184 10.007 17.2686 10.007 17.2994 10.0377L18.9107 11.649C18.9849 11.7229 18.8724 11.8343 18.7989 11.7608Z" fill="#007EA7"/>
<path d="M18.8836 12.5915L17.1437 10.8516C17.1129 10.8209 17.1129 10.7706 17.1437 10.7399C17.1744 10.7091 17.2247 10.7091 17.2554 10.7399L18.9953 12.4798C19.0261 12.5105 19.0261 12.5608 18.9953 12.5915C18.9646 12.6223 18.9147 12.6227 18.8836 12.5915Z" fill="#007EA7"/>
<path d="M18.0756 13.1738C18.0246 13.1738 16.9169 12.0478 16.8805 12.0118C16.8497 11.981 16.8497 11.9308 16.8805 11.9C16.9112 11.8693 16.9615 11.8693 16.9922 11.9L18.1311 13.0388C18.1813 13.0887 18.1457 13.1738 18.0756 13.1738Z" fill="#007EA7"/>
<path d="M17.3072 13.8843L16.4425 13.0196C16.4117 12.9888 16.4117 12.9386 16.4425 12.9078C16.4732 12.8771 16.5235 12.8771 16.5542 12.9078L17.419 13.7725C17.4497 13.8033 17.4497 13.8535 17.419 13.8843C17.3882 13.915 17.3383 13.9154 17.3072 13.8843Z" fill="#007EA7"/>
<path d="M16.7441 14.2856L16.0924 13.6338C16.0616 13.6031 16.0616 13.5528 16.0924 13.5221C16.1231 13.4913 16.1734 13.4913 16.2041 13.5221L16.8559 14.1738C16.9301 14.2481 16.8176 14.359 16.7441 14.2856Z" fill="#007EA7"/>
<path d="M16.1111 14.8791L15.5006 14.2686C15.4699 14.2378 15.4699 14.1876 15.5006 14.1569C15.5313 14.1261 15.5816 14.1261 15.6123 14.1569L16.2228 14.7673C16.2536 14.7981 16.2536 14.8483 16.2228 14.8791C16.1921 14.9098 16.1422 14.9102 16.1111 14.8791Z" fill="#007EA7"/>
<path d="M15.7129 15.1281C15.6926 15.1281 15.6724 15.1202 15.657 15.1048L15.3473 14.7951C15.3165 14.7644 15.3165 14.7141 15.3473 14.6834C15.3784 14.6522 15.4287 14.6526 15.459 14.6834L15.7688 14.9931C15.7995 15.0238 15.7995 15.0741 15.7688 15.1048C15.7534 15.1206 15.7328 15.1281 15.7129 15.1281Z" fill="#007EA7"/>
<path d="M18.7982 10.7747L17.7794 9.7559C17.7487 9.72515 17.7487 9.6749 17.7794 9.64416C17.8102 9.61341 17.8604 9.61341 17.8912 9.64416L18.91 10.663C18.9407 10.6937 18.9407 10.744 18.91 10.7747C18.8792 10.8055 18.8294 10.8059 18.7982 10.7747Z" fill="#007EA7"/>
<path d="M18.7654 9.33906L18.1954 8.76908C18.1647 8.73834 18.1647 8.68809 18.1954 8.65734C18.2262 8.62659 18.2764 8.62659 18.3072 8.65734L18.8771 9.22731C18.9514 9.30119 18.8389 9.41256 18.7654 9.33906Z" fill="#007EA7"/>
<path d="M18.8922 8.30477L18.4366 7.84916C18.4059 7.81841 18.4059 7.76817 18.4366 7.73742C18.4674 7.70667 18.5176 7.70667 18.5484 7.73742L19.004 8.19302C19.0347 8.22377 19.0347 8.27402 19.004 8.30477C18.9736 8.33552 18.9234 8.33589 18.8922 8.30477Z" fill="#007EA7"/>
<path d="M15.4246 14.7087C15.4044 14.7087 15.3841 14.7008 15.3688 14.6854C15.338 14.6547 15.338 14.6044 15.3688 14.5737L17.3217 12.6208C17.3952 12.5473 17.5077 12.6586 17.4334 12.7325L15.4805 14.6854C15.4651 14.7012 15.4449 14.7087 15.4246 14.7087Z" fill="#007EA7"/>
<path d="M16.837 14.0257L18.1262 12.7365C18.1997 12.663 18.3122 12.7744 18.238 12.8482L16.9488 14.1374C16.8749 14.2113 16.7624 14.1003 16.837 14.0257Z" fill="#007EA7"/>
<path d="M16.8709 11.9699C16.8507 11.9699 16.8304 11.962 16.8151 11.9466C16.7843 11.9159 16.7843 11.8656 16.8151 11.8349L17.9228 10.7272C17.9535 10.6964 18.0038 10.6964 18.0345 10.7272C18.0652 10.7579 18.0652 10.8082 18.0345 10.8389L16.9268 11.9466C16.9114 11.962 16.8916 11.9699 16.8709 11.9699Z" fill="#007EA7"/>
<path d="M17.7356 11.9007L18.8099 10.8263C18.8834 10.7528 18.9959 10.8642 18.9216 10.9381L17.8473 12.0124C17.773 12.0866 17.6621 11.9742 17.7356 11.9007Z" fill="#007EA7"/>
<path d="M17.4407 10.1514C17.4205 10.1514 17.4003 10.1436 17.3849 10.1282C17.3541 10.0974 17.3541 10.0472 17.3849 10.0164L18.2845 9.11685C18.358 9.04336 18.4705 9.15473 18.3962 9.2286L17.4966 10.1282C17.4812 10.1436 17.461 10.1514 17.4407 10.1514Z" fill="#007EA7"/>
<path d="M18.2076 10.2387C18.1375 10.2387 18.1018 10.1535 18.1517 10.1037L18.9084 9.34732C18.9819 9.27383 19.0944 9.3852 19.0202 9.45907C18.9823 9.49694 18.2612 10.2387 18.2076 10.2387Z" fill="#007EA7"/>
<path d="M18.3831 8.39744C18.3629 8.39744 18.3426 8.38957 18.3273 8.37419C18.2965 8.34344 18.2965 8.2932 18.3273 8.26245L18.6929 7.89684C18.7664 7.82297 18.8789 7.93434 18.8046 8.00858L18.439 8.37419C18.4236 8.38994 18.4038 8.39744 18.3831 8.39744Z" fill="#007EA7"/>
<path fill-rule="evenodd" clip-rule="evenodd" d="M17.2599 17.2734L16.8311 16.8446C16.8044 16.8365 16.7821 16.8141 16.774 16.7875L16.5722 16.5857C16.4987 16.5122 16.6101 16.3997 16.6839 16.4739L16.8583 16.6482L17.9258 15.5807C17.9993 15.5072 18.1118 15.6186 18.0375 15.6924L17.7052 16.0249L17.709 16.0286L18.0696 16.3891L18.3016 16.1573C18.3751 16.0838 18.4876 16.1951 18.4133 16.269L17.8876 16.7944C17.8753 16.8067 17.8598 16.8142 17.8437 16.8167L17.8589 16.8319C17.8896 16.8626 17.8896 16.9129 17.8589 16.9436C17.8285 16.974 17.7786 16.9748 17.7471 16.9436L17.3001 16.4967C17.2866 16.4831 17.2792 16.4682 17.2768 16.4534L16.9702 16.7602L17.3717 17.1616C17.4459 17.2355 17.3334 17.3469 17.2599 17.2734ZM17.7537 16.7267C17.7561 16.7105 17.7635 16.695 17.7759 16.6826L17.9597 16.4989C17.8508 16.4013 17.6932 16.239 17.6263 16.1701L17.5973 16.1404L17.5936 16.1365L17.3687 16.3615C17.3834 16.364 17.3983 16.3713 17.4119 16.3849L17.7537 16.7267Z" fill="white"/>
<path d="M18.162 15.7828L18.4541 16.0749C18.528 16.1488 18.6405 16.0374 18.5659 15.9632L18.2737 15.6711C18.243 15.6403 18.1927 15.6403 18.162 15.6711C18.1312 15.7018 18.1312 15.7521 18.162 15.7828Z" fill="white"/>
<path d="M18.1954 8.76918L18.7654 9.33915C18.8389 9.41265 18.9514 9.30128 18.8771 9.2274L18.3071 8.65743C18.2764 8.62668 18.2261 8.62668 18.1954 8.65743C18.1646 8.68818 18.1646 8.73843 18.1954 8.76918Z" fill="white"/>
<path d="M11.588 18.7041L11.3985 18.5146C11.3678 18.4839 11.3678 18.4336 11.3985 18.4029C11.4297 18.3717 11.4799 18.3721 11.5103 18.4029L11.6997 18.5924L12.0982 18.194L11.8317 17.9276L11.8015 17.9578C11.7861 17.9732 11.7659 17.9811 11.7456 17.9811C11.7254 17.9811 11.7051 17.9732 11.6897 17.9578C11.659 17.9271 11.659 17.8768 11.6897 17.8461L11.72 17.8158L11.6897 17.7856C11.659 17.7548 11.659 17.7046 11.6897 17.6738C11.7205 17.6431 11.7707 17.6431 11.8015 17.6738L11.8318 17.7041L12.187 17.3492C12.2177 17.3185 12.268 17.3185 12.2987 17.3492C12.3295 17.38 12.3295 17.4302 12.2987 17.461L11.9435 17.8159L12.3591 18.2314C12.3898 18.2622 12.3898 18.3124 12.3591 18.3432C12.3437 18.3585 12.3235 18.3664 12.3032 18.3664C12.283 18.3664 12.2627 18.3585 12.2473 18.3432L12.2099 18.3057L11.8114 18.7042L12.0675 18.9605C12.0983 18.9912 12.0983 19.0415 12.0675 19.0722C12.0371 19.1026 11.9869 19.1033 11.9558 19.0718L11.6998 18.8159L11.6427 18.8729C11.6123 18.9037 11.5621 18.9041 11.531 18.8729C11.5002 18.8422 11.5002 18.7919 11.531 18.7612L11.588 18.7041Z" fill="white"/>
<path d="M12.3559 16.9474C12.3356 16.9474 12.3154 16.9395 12.3 16.9241C12.2692 16.8934 12.2692 16.8431 12.3 16.8124L12.4744 16.638C12.5051 16.6073 12.555 16.6069 12.5861 16.638C12.6169 16.6688 12.6169 16.719 12.5861 16.7498L12.4117 16.9241C12.3964 16.9399 12.3761 16.9474 12.3559 16.9474Z" fill="white"/>
<path d="M26.6308 16.3669L26.7022 16.4384C26.7757 16.5118 26.8882 16.4005 26.814 16.3266L26.7425 16.2552L27.4856 15.5121C27.5163 15.4814 27.5163 15.4311 27.4856 15.4004C27.4548 15.3696 27.4046 15.3696 27.3738 15.4004L27.2197 15.5546C27.2161 15.5419 27.2094 15.53 27.1995 15.5201L26.8634 15.184L27.2033 14.844L27.2225 14.8632C27.2379 14.8785 27.2581 14.8864 27.2784 14.8864C27.2986 14.8864 27.3189 14.8785 27.3343 14.8628C27.365 14.832 27.365 14.7818 27.3343 14.751L27.3085 14.7253C27.3165 14.6984 27.3099 14.668 27.2887 14.6469C27.2676 14.6257 27.2372 14.6191 27.2103 14.6271L26.8401 14.2569L27.1927 13.9043C27.2665 13.8308 27.1552 13.7187 27.0809 13.7925L26.7283 14.1451L26.5153 13.9321C26.4422 13.8582 26.3293 13.9696 26.4035 14.0438L26.6165 14.2569L26.4315 14.442C26.358 14.5159 26.4693 14.6284 26.5432 14.5537L26.7283 14.3687L27.0916 14.7322L26.7516 15.0722L26.4049 14.7255C26.331 14.6512 26.2197 14.7637 26.2932 14.8372L26.6399 15.184L26.3824 15.4415C26.3516 15.4722 26.3516 15.5225 26.3824 15.5532C26.3978 15.5686 26.418 15.5765 26.4383 15.5765C26.4589 15.5765 26.4788 15.5686 26.4941 15.5532L26.7516 15.2957L27.0878 15.6318C27.0976 15.6417 27.1095 15.6485 27.1222 15.6521L26.6308 16.1435L26.2061 15.7191C26.1754 15.6884 26.1251 15.6884 26.0944 15.7191C26.0637 15.7499 26.0637 15.8001 26.0944 15.8309L26.519 16.2552L26.235 16.5392C26.2043 16.57 26.2043 16.6202 26.235 16.651C26.2661 16.6821 26.3164 16.6817 26.3468 16.651L26.6308 16.3669Z" fill="white"/>
<path d="M27.1113 13.4387C27.09 13.4387 27.0051 13.3633 26.9091 13.271L26.6416 13.5385C26.5678 13.6128 26.4564 13.5003 26.5299 13.4268L26.7964 13.1603C26.7162 13.0803 26.6423 13.0041 26.6043 12.9649L26.58 12.94C26.5065 12.8665 26.6179 12.754 26.6917 12.8282L26.9101 13.0466L27.0549 12.9018C27.1284 12.8283 27.2409 12.9397 27.1666 13.0135L27.0218 13.1583L27.1672 13.3037C27.198 13.3345 27.198 13.3847 27.1672 13.4155C27.1518 13.4312 27.132 13.4387 27.1113 13.4387Z" fill="white"/>
<path fill-rule="evenodd" clip-rule="evenodd" d="M13.8697 14.6567C13.9908 14.6382 14.1141 14.6115 14.2402 14.5759C14.5742 14.9381 14.9237 15.1855 15.2773 15.325C15.2648 15.3539 15.2703 15.389 15.2938 15.4125L16.2377 16.3564C16.3112 16.4299 16.4237 16.3185 16.3494 16.2446L15.5046 15.3998C15.6759 15.445 15.8475 15.4654 16.0182 15.4618C16.0089 15.4656 16.0001 15.4713 15.9926 15.4789C15.9618 15.5096 15.9618 15.5599 15.9926 15.5906L16.2784 15.8763L16.1857 15.9689C16.1122 16.0428 16.224 16.1545 16.2975 16.0807L16.3902 15.988L16.5933 16.191C16.6668 16.2645 16.7793 16.1531 16.705 16.0792L16.5019 15.8762L16.799 15.5791L17.1418 15.9219C17.1729 15.953 17.2228 15.9526 17.2536 15.9219C17.2843 15.8912 17.2843 15.8409 17.2536 15.8102L16.9108 15.4674L17.3267 15.0515L17.5267 15.2515L17.2708 15.5075C17.24 15.5382 17.24 15.5885 17.2708 15.6192C17.3019 15.6503 17.3518 15.65 17.3825 15.6192L17.6385 15.3633L17.8336 15.5584C17.8647 15.5895 17.9146 15.5891 17.9453 15.5584C17.9761 15.5276 17.9761 15.4774 17.9453 15.4466L17.7502 15.2515L18.04 14.9618L18.0902 15.0119C18.1055 15.0273 18.1258 15.0352 18.146 15.0352C18.1663 15.0352 18.1865 15.0273 18.2019 15.0119C18.2327 14.9812 18.2327 14.9309 18.2019 14.9002L18.1426 14.8409C18.1479 14.8157 18.1408 14.7883 18.1212 14.7687C18.1017 14.7492 18.0743 14.7421 18.049 14.7474L17.9177 14.6162C18.233 14.6877 18.5321 14.7041 18.823 14.6762L18.8241 14.698L18.3944 15.1277H18.3522C18.3087 15.1277 18.2731 15.163 18.2731 15.2068C18.2731 15.2246 18.279 15.241 18.2888 15.2542C18.2848 15.2785 18.2922 15.3043 18.3108 15.323C18.3262 15.3384 18.3464 15.3463 18.3667 15.3463C18.3873 15.3463 18.4072 15.3384 18.4226 15.3226L18.4593 15.286H18.7853C18.7942 15.286 18.8026 15.2845 18.8106 15.2818C18.7508 15.9027 18.5449 16.4614 18.2075 16.9018C17.6773 17.594 16.7781 17.9495 16.0232 17.7669C14.5448 17.4101 14.0936 15.592 13.8697 14.6567ZM18.6176 15.1277H18.7853C18.7985 15.1277 18.8109 15.1309 18.8218 15.1366C18.8261 15.0641 18.8284 14.9907 18.8288 14.9167L18.6176 15.1277ZM17.9282 14.8501L17.6385 15.1398L17.4384 14.9397L17.5574 14.8207C17.5821 14.796 17.587 14.7588 17.572 14.7292C17.6112 14.6911 17.65 14.6515 17.6885 14.6106L17.9282 14.8501ZM16.963 15.1917C16.8904 15.2323 16.8173 15.2685 16.7435 15.3001L16.799 15.3556L16.963 15.1917ZM16.6873 15.4674L16.5868 15.3669L16.5821 15.3618C16.4144 15.4181 16.2443 15.451 16.0732 15.4598C16.0846 15.4635 16.0953 15.4699 16.1043 15.4789L16.3901 15.7645L16.6873 15.4674ZM18.9101 11.7604C18.8735 11.9244 18.829 12.0911 18.7752 12.2596L18.1875 11.672L18.4487 11.4108L18.7989 11.7609C18.8356 11.7977 18.8821 11.7882 18.9101 11.7604ZM18.7189 12.4269L18.0758 11.7838L17.8471 12.0125C17.7728 12.0867 17.6618 11.9742 17.7353 11.9007L17.9641 11.672L17.5827 11.2907L16.982 11.8913C16.9856 11.8939 16.9891 11.8968 16.9923 11.9L17.9776 12.8853L18.1264 12.7366C18.1999 12.6631 18.3124 12.7744 18.2381 12.8483L18.0894 12.9971L18.1311 13.0388C18.1814 13.0887 18.1457 13.1738 18.0756 13.1738C18.0678 13.1738 18.0349 13.1471 17.9847 13.1018L17.3665 13.72L17.419 13.7725C17.4498 13.8033 17.4498 13.8535 17.419 13.8843C17.3883 13.915 17.3384 13.9154 17.3073 13.8843L17.2547 13.8317L16.949 14.1375C16.8751 14.2114 16.7626 14.1004 16.8372 14.0258L17.143 13.72L16.7944 13.3714L16.4239 13.7419L16.8556 14.1736C16.9299 14.2478 16.8174 14.3588 16.7439 14.2853L16.3122 13.8536L15.8104 14.3553L16.2226 14.7675C16.2533 14.7982 16.2533 14.8485 16.2226 14.8792C16.1918 14.91 16.142 14.9104 16.1109 14.8792L15.6987 14.4671L15.4806 14.6852C15.4772 14.6886 15.4737 14.6917 15.4699 14.6943L15.7686 14.9931C15.7994 15.0238 15.7994 15.0741 15.7686 15.1048C15.7584 15.1153 15.7459 15.1221 15.7328 15.1255C16.4131 15.2376 17.0885 14.8875 17.6801 14.1345C17.7114 14.0948 17.7582 14.0741 17.8052 14.0742C18.2371 13.5257 18.5274 12.9681 18.7189 12.4269ZM17.6945 11.1789L18.0758 11.5603L18.337 11.2991L17.9557 10.9177L17.6945 11.1789ZM18.0567 10.7953L18.4487 11.1873L18.8097 10.8264C18.8831 10.7529 18.9956 10.8643 18.9214 10.9382L18.5605 11.2991L18.9106 11.6492C18.9188 11.6573 18.9247 11.6658 18.9286 11.6745C19.1053 10.8238 19.0721 10.049 19.0176 9.46185L18.9873 9.49262C18.8818 9.60026 18.5575 9.93099 18.3609 10.1139L18.91 10.663C18.9407 10.6937 18.9407 10.744 18.91 10.7747C18.8792 10.8055 18.8293 10.8058 18.7982 10.7747L18.2419 10.2184C18.2247 10.2316 18.2129 10.2388 18.2075 10.2388C18.1434 10.2388 18.1081 10.1676 18.1408 10.1173L17.824 9.80049L17.4965 10.128C17.4811 10.1434 17.4609 10.1512 17.4406 10.1512C17.4277 10.1512 17.4148 10.148 17.4032 10.1417L17.9663 10.7049C17.9905 10.7011 18.0161 10.7084 18.0347 10.727C18.0532 10.7455 18.0606 10.7711 18.0567 10.7953ZM18.9084 9.34751C18.9394 9.31647 18.9774 9.31841 19.0054 9.33656C18.9959 9.24352 18.9863 9.15591 18.9773 9.07422C18.9608 8.9245 18.9465 8.79438 18.9397 8.6877C18.9219 8.54316 18.8944 8.40387 18.8573 8.27001L18.7003 8.113L18.439 8.37429C18.4236 8.39003 18.4037 8.39753 18.3831 8.39753C18.3629 8.39753 18.3426 8.38966 18.3272 8.37429C18.2965 8.34354 18.2965 8.29329 18.3272 8.26254L18.5885 8.00126L18.4365 7.84926C18.4058 7.81851 18.4058 7.76826 18.4365 7.73751C18.4673 7.70676 18.5175 7.70676 18.5483 7.73751L18.7006 7.88989C18.7053 7.8861 18.7101 7.88299 18.715 7.88051C18.6033 7.63814 18.4544 7.41782 18.2689 7.22106C17.4447 6.34735 15.9583 6.06574 14.7351 6.55134C13.6555 6.97995 13.0364 7.90353 13.0364 9.08473C13.0364 9.0956 13.0353 9.1061 13.0331 9.11697C12.6635 10.9013 13.1641 12.8624 14.3412 14.2539C14.3702 14.2616 14.3975 14.2778 14.4193 14.3021C14.8235 14.7596 15.2455 15.0252 15.6667 15.1132C15.6644 15.1115 15.6622 15.1097 15.66 15.1078L15.6569 15.1048L15.3472 14.7951C15.3164 14.7643 15.3164 14.7141 15.3472 14.6833C15.3509 14.6796 15.3549 14.6763 15.3592 14.6735C15.3385 14.6428 15.3417 14.6006 15.3688 14.5735L15.587 14.3553L15.5004 14.2688C15.4696 14.238 15.4696 14.1878 15.5004 14.157C15.5311 14.1263 15.5814 14.1263 15.6121 14.157L15.6987 14.2436L16.2004 13.7419L16.0922 13.6336C16.0614 13.6029 16.0614 13.5526 16.0922 13.5219C16.1229 13.4911 16.1732 13.4911 16.2039 13.5219L16.3122 13.6301L16.6827 13.2596L16.4426 13.0196C16.4118 12.9888 16.4118 12.9386 16.4426 12.9078C16.4733 12.8771 16.5236 12.8771 16.5543 12.9078L16.7944 13.1479L17.3217 12.6206C17.3952 12.5471 17.5077 12.6584 17.4335 12.7323L16.9061 13.2596L17.2547 13.6082L17.869 12.994C17.5824 12.7211 17.0842 12.2175 16.9279 12.0596L16.8806 12.0117C16.8684 11.9996 16.8611 11.9844 16.8585 11.9686C16.8426 11.9661 16.8274 11.9586 16.8152 11.9464C16.7845 11.9157 16.7845 11.8654 16.8152 11.8347L17.471 11.1789L17.1436 10.8516C17.1129 10.8208 17.1129 10.7706 17.1436 10.7398C17.1744 10.7091 17.2246 10.7091 17.2554 10.7398L17.5827 11.0672L17.8439 10.806L17.1876 10.1496C17.1568 10.1189 17.1568 10.0686 17.1876 10.0379C17.2183 10.0071 17.2686 10.0071 17.2993 10.0379L17.3711 10.1097C17.355 10.0798 17.3595 10.0414 17.3848 10.0162L18.2843 9.11665C18.3578 9.04316 18.4703 9.15452 18.3961 9.2284L17.9357 9.68875L18.2513 10.0043L18.9084 9.34751ZM19.1376 14.6286C19.1928 15.5776 18.9545 16.4477 18.4584 17.0942C17.8517 17.8861 16.8463 18.2907 15.949 18.074C14.3528 17.6893 13.8513 15.9112 13.5517 14.6873C13.3481 14.6952 13.15 14.6804 12.9549 14.6465C13.1075 15.6739 13.2064 16.8528 12.9304 17.9924C12.6467 19.1628 11.9677 20.1296 11.0841 20.6446C11.3412 20.9349 11.5765 21.2458 11.7465 21.6008C12.0933 22.3251 12.126 23.1542 12.1549 23.886C12.1623 24.0792 12.1858 24.2763 12.2095 24.4749C12.23 24.6471 12.2508 24.821 12.2614 24.9955C12.326 25.0299 12.3907 25.0634 12.4556 25.0959L12.585 24.9665L12.3053 24.6867C12.2745 24.656 12.2745 24.6057 12.3053 24.575C12.336 24.5442 12.3863 24.5442 12.417 24.575L12.6968 24.8547L12.9007 24.6508L12.8183 24.5684C12.7875 24.5376 12.7875 24.4874 12.8183 24.4566C12.849 24.4259 12.8993 24.4259 12.93 24.4566L13.0124 24.539L13.3339 24.2176C13.3647 24.1868 13.4149 24.1868 13.4457 24.2176C13.4764 24.2483 13.4764 24.2985 13.4457 24.3293L13.1242 24.6508L13.5552 25.0819L13.8371 24.8002C13.6992 24.6619 13.5799 24.5413 13.5168 24.4775L13.4698 24.4301C13.4391 24.3993 13.4391 24.3491 13.4698 24.3183C13.5006 24.2876 13.5508 24.2876 13.5816 24.3183L13.9502 24.687L14.3061 24.3312C14.3369 24.3005 14.3871 24.3005 14.4179 24.3312C14.4486 24.362 14.4486 24.4122 14.4179 24.443L14.062 24.7988L14.4142 25.151L14.8462 24.719L14.4577 24.3305C14.427 24.2997 14.427 24.2495 14.4577 24.2187C14.4885 24.188 14.5387 24.188 14.5695 24.2187L14.958 24.6073L15.8082 23.757C15.839 23.7263 15.8892 23.7263 15.92 23.757C15.9478 23.7848 15.9505 23.8286 15.9279 23.8595L16.5084 24.44L17.0086 23.9397L16.6693 23.6004C16.6386 23.5696 16.6386 23.5194 16.6693 23.4886C16.7001 23.4579 16.7503 23.4579 16.7811 23.4886L17.1203 23.8279L17.2768 23.6715C17.3075 23.6407 17.3578 23.6407 17.3885 23.6715C17.4193 23.7022 17.4193 23.7525 17.3885 23.7832L17.2321 23.9397L17.8709 24.5785L18.3852 24.0642L18.1019 23.781L18.0253 23.8577C18.0099 23.8734 17.9897 23.8809 17.9694 23.8809C17.9492 23.8809 17.9289 23.873 17.9136 23.8577C17.8828 23.8269 17.8828 23.7767 17.9136 23.7459L17.9902 23.6693L17.5321 23.2113C17.5014 23.1806 17.5014 23.1303 17.5321 23.0996C17.5629 23.0688 17.6131 23.0688 17.6439 23.0996L18.1019 23.5576L18.7032 22.9563L18.2739 22.527C18.2432 22.4962 18.2432 22.446 18.2739 22.4152C18.3047 22.3845 18.3549 22.3845 18.3857 22.4152L18.815 22.8445L19.1963 22.4632L18.7155 21.9825L18.4993 22.1987C18.484 22.2141 18.4637 22.2219 18.4435 22.2219C18.4232 22.2219 18.403 22.2141 18.3876 22.1987C18.3568 22.1679 18.3568 22.1177 18.3876 22.0869L18.6038 21.8707L18.4526 21.7195C18.4219 21.6888 18.4219 21.6385 18.4526 21.6078C18.4834 21.577 18.5336 21.577 18.5644 21.6078L18.7155 21.759L19.1514 21.3232L19.0438 21.2156C19.0131 21.1849 19.0131 21.1346 19.0438 21.1039C19.0746 21.0731 19.1248 21.0731 19.1556 21.1039L19.2631 21.2114L19.5335 20.941C19.5643 20.9102 19.6145 20.9102 19.6453 20.941C19.676 20.9717 19.676 21.022 19.6453 21.0527L19.3749 21.3232L20.0843 22.0326C20.1301 21.8857 20.1855 21.7414 20.2527 21.6011C20.3021 21.4977 20.3578 21.3976 20.4185 21.3001C20.4097 21.2962 20.4016 21.2907 20.3945 21.2836L20.2204 21.1096L20.079 21.2509C20.0636 21.2663 20.0434 21.2742 20.0231 21.2742C20.0029 21.2742 19.9826 21.2663 19.9673 21.2509C19.9365 21.2202 19.9365 21.1699 19.9673 21.1392L20.1086 20.9979L19.7566 20.6461C19.7259 20.6154 19.7259 20.5651 19.7566 20.5344C19.7874 20.5036 19.8376 20.5036 19.8684 20.5344L20.2203 20.8861L20.6076 20.4989L20.2155 20.1068L20.0198 20.3024C20.0045 20.3177 19.9838 20.3256 19.964 20.3256C19.9437 20.3256 19.9235 20.3177 19.9081 20.3024C19.8773 20.2716 19.8773 20.2214 19.9081 20.1906L20.1038 19.9951L20.0704 19.9617C20.0396 19.931 20.0396 19.8807 20.0704 19.85C20.1011 19.8192 20.1514 19.8192 20.1821 19.85L20.2156 19.8834L20.3521 19.747C20.3832 19.7159 20.4334 19.7163 20.4638 19.747C20.4946 19.7777 20.4946 19.828 20.4638 19.8587L20.3273 19.9951L20.72 20.3879C20.7895 20.3367 20.8822 20.4286 20.8304 20.4982L20.8436 20.5115C20.8744 20.5422 20.8744 20.5925 20.8436 20.6232C20.8129 20.6539 20.7626 20.6543 20.7319 20.6232L20.7193 20.6106L20.3321 20.9978L20.5037 21.1693C20.7561 20.7994 21.076 20.4654 21.3935 20.136C20.84 19.9715 19.775 19.0867 19.575 17.4895C19.4421 16.4259 19.6911 15.3439 19.9384 14.3708C19.8708 14.3962 19.8055 14.4217 19.7431 14.4461C19.5419 14.5247 19.3411 14.5869 19.1376 14.6286ZM19.308 22.3515L18.8273 21.8707L19.2631 21.4349L20.0346 22.2064C19.8898 22.7614 19.8658 23.3433 19.8448 23.8744L18.9267 22.9563L19.308 22.5749L19.6889 22.9559C19.7624 23.0294 19.8749 22.918 19.8007 22.8441L19.4198 22.4632L19.7615 22.1215C19.7922 22.0907 19.7922 22.0405 19.7615 22.0097C19.7307 21.979 19.6805 21.979 19.6497 22.0097L19.308 22.3515ZM18.815 23.068L18.2137 23.6693L18.4969 23.9525L18.6455 23.8039C18.6763 23.7731 18.7265 23.7731 18.7573 23.8039C18.788 23.8346 18.788 23.8849 18.7573 23.9156L18.6087 24.0642L19.0006 24.456L19.6018 23.8548L18.815 23.068ZM18.4969 24.176L18.8888 24.5678L18.3876 25.0691C18.3829 25.0737 18.379 25.0785 18.3757 25.0833L17.9827 24.6902L18.4969 24.176ZM18.4993 25.1808C18.4947 25.1855 18.4899 25.1894 18.485 25.1926L18.5397 25.2473C18.5705 25.2781 18.5705 25.3283 18.5397 25.3591C18.509 25.3898 18.4591 25.3902 18.428 25.3591L17.8709 24.802L17.3707 25.3023L17.5107 25.4423C17.5849 25.5161 17.4724 25.6275 17.3989 25.554L17.2589 25.414L16.8015 25.8714C17.6674 25.7678 18.5495 25.5187 19.4452 25.1241L19.0006 24.6795L18.4993 25.1808ZM19.7135 23.9666L19.1123 24.5678L19.5994 25.0548C19.6418 25.0353 19.6842 25.0156 19.7267 24.9955C19.726 24.8825 19.7475 24.7482 19.7667 24.6283C19.7757 24.5725 19.7841 24.5198 19.7896 24.4738C19.8051 24.3442 19.821 24.2118 19.832 24.0809C19.8258 24.0774 19.82 24.073 19.8147 24.0678L19.7135 23.9666ZM16.5522 25.8972L17.1472 25.3023L16.5084 24.6635L15.7614 25.4107L16.0308 25.68C16.0615 25.7108 16.0615 25.761 16.0308 25.7918C16 25.8225 15.9498 25.8229 15.919 25.7918L15.6496 25.5224L15.2804 25.8917L15.2769 25.8951C15.2744 25.8973 15.2718 25.8994 15.2693 25.9013C15.6925 25.9364 16.1203 25.9351 16.5522 25.8972ZM17.2589 25.1905L17.7592 24.6902L17.1204 24.0514L16.6201 24.5517L17.2589 25.1905ZM15.8168 23.9719L16.3967 24.5517L15.6496 25.2989L15.0697 24.719L15.8168 23.9719ZM14.958 24.8308L15.5379 25.4107L15.1686 25.78C15.1314 25.8172 15.1415 25.8645 15.1703 25.8924C14.8042 25.8571 14.4415 25.7943 14.0825 25.7042C14.0868 25.7012 14.0911 25.6976 14.0953 25.6934L14.417 25.3717C14.5344 25.4837 14.6185 25.5592 14.6319 25.5592C14.6525 25.5592 14.6724 25.5517 14.6878 25.5363C14.7185 25.5055 14.7185 25.4553 14.6878 25.4245L14.526 25.2628L14.958 24.8308ZM13.9704 25.6752C13.9543 25.6476 13.9538 25.6114 13.9836 25.5817L14.3032 25.262C14.1931 25.1548 14.068 25.0309 13.9488 24.9119L13.667 25.1936L13.7043 25.231C13.7351 25.2617 13.7351 25.312 13.7043 25.3427C13.674 25.3735 13.6237 25.3738 13.5926 25.3427L13.5552 25.3053L13.372 25.4885C13.5703 25.5593 13.7698 25.6215 13.9704 25.6752ZM13.0124 24.7625L13.4435 25.1936L13.2329 25.4041C13.2246 25.4124 13.2186 25.4214 13.2147 25.4304C13.0104 25.3526 12.8074 25.2655 12.6056 25.1693L12.6968 25.0782L12.7436 25.1251C12.8171 25.1986 12.9296 25.0872 12.8554 25.0133L12.8085 24.9665L13.0124 24.7625ZM12.2557 14.4461C12.378 14.4939 12.5002 14.5356 12.623 14.5704C12.7372 15.3223 12.7796 15.9893 12.7632 16.5799L12.5975 16.4142C12.5667 16.3831 12.5165 16.3834 12.4857 16.4142C12.455 16.4449 12.455 16.4952 12.4857 16.5259L12.7545 16.7947C12.7442 16.9863 12.7275 17.1694 12.7049 17.3444L12.4648 17.1043C12.434 17.0735 12.3838 17.0735 12.353 17.1043C12.3223 17.135 12.3223 17.1853 12.353 17.216L12.6767 17.5397L12.6665 17.6017C12.638 17.5898 12.6036 17.5954 12.5801 17.6189L12.2599 17.9387C12.2291 17.9695 12.2291 18.0197 12.2599 18.0505C12.2752 18.0659 12.2955 18.0737 12.3157 18.0737C12.336 18.0737 12.3562 18.0662 12.3716 18.0505L12.631 17.7914C12.4551 18.6549 12.1208 19.2919 11.7037 19.7517C11.7006 19.7472 11.697 19.7428 11.6927 19.7385L11.5199 19.5658L11.6994 19.3863L11.787 19.474C11.8182 19.5051 11.868 19.5047 11.8988 19.474C11.9295 19.4432 11.9295 19.393 11.8988 19.3622L11.3776 18.841C11.3468 18.8103 11.2966 18.8103 11.2658 18.841C11.2351 18.8718 11.2351 18.922 11.2658 18.9527L11.5877 19.2746L11.4082 19.4541L11.056 19.1019L11.1829 18.975C11.2136 18.9443 11.2136 18.894 11.1829 18.8633C11.1521 18.8325 11.1019 18.8325 11.0711 18.8633L10.9443 18.9901L10.9405 18.9863C10.9097 18.9556 10.8595 18.9556 10.8287 18.9863C10.798 19.0171 10.798 19.0673 10.8287 19.0981L10.8325 19.1019L10.5795 19.3549L10.5028 19.2781C10.472 19.2474 10.4218 19.2474 10.391 19.2781C10.3603 19.3089 10.3603 19.3591 10.391 19.3899L10.4677 19.4666L10.211 19.7234C9.79068 19.263 9.3379 18.6619 9.29303 17.9669C9.29003 17.9222 9.26828 17.8806 9.23303 17.8529C9.19778 17.8251 9.15204 17.8131 9.10816 17.8214C7.29025 18.136 5.28746 17.2383 4.32263 15.6825C4.62449 13.3666 5.09135 11.5224 5.79107 9.88185C6.14092 9.06139 6.56766 8.24318 7.31462 7.81532C8.11494 7.35658 8.96011 7.54175 9.42062 8.03483C9.39555 8.02966 9.36828 8.03676 9.34864 8.0564C9.31789 8.08715 9.31789 8.1374 9.34864 8.16815L9.48021 8.29972L9.34864 8.43143C9.31789 8.46218 9.31789 8.51243 9.34864 8.54318C9.36401 8.55855 9.38426 8.56642 9.40451 8.56642C9.42513 8.56642 9.44501 8.55893 9.46038 8.54318L9.59196 8.41146L9.70225 8.52175C9.70559 8.5251 9.70917 8.5281 9.71293 8.53073C9.743 8.62609 9.76186 8.7261 9.76813 8.82965C9.77178 8.89003 9.77012 8.9503 9.76359 9.00983C9.75871 9.01291 9.75409 9.01659 9.74982 9.02085L9.71943 9.05124L9.27991 8.61173C9.24916 8.58098 9.19892 8.58098 9.16817 8.61173C9.13742 8.64248 9.13742 8.69272 9.16817 8.72347L9.23373 8.78904C9.20925 8.78483 9.18314 8.79213 9.16433 8.81095L9.02434 8.95093C9.01111 8.95432 8.9986 8.96118 8.98829 8.97149C8.97797 8.98181 8.97112 8.99432 8.96772 9.00755L8.66109 9.31419L8.60433 9.25743C8.57358 9.22668 8.52333 9.22668 8.49258 9.25743C8.46183 9.28818 8.46183 9.33843 8.49258 9.36917L8.54934 9.42593L8.19527 9.78001L8.01839 9.60313C7.98764 9.57238 7.9374 9.57238 7.90665 9.60313C7.8759 9.63388 7.8759 9.68413 7.90665 9.71488L8.09472 9.90295C8.09136 9.92675 8.09878 9.9518 8.117 9.97002C8.13237 9.98539 8.15262 9.99327 8.17287 9.99327C8.17667 9.99327 8.18047 9.993 8.18424 9.99247L8.19146 9.99969C8.02265 10.0024 7.85205 10.0193 7.6851 10.0806C7.04613 10.3142 6.79752 11.0559 6.83427 11.687C6.85406 12.0201 6.93331 12.3413 7.01137 12.6577C7.07384 12.9109 7.13554 13.161 7.16538 13.4116C7.22163 13.8852 7.12375 14.5331 6.66403 14.8016C6.58865 14.8459 6.56278 14.9426 6.60703 15.018C6.6509 15.0934 6.74802 15.1189 6.82339 15.075C7.28016 14.8085 7.46488 14.2946 7.49264 13.7999C8.16386 13.8692 8.80005 14.1581 9.29374 14.6204C9.80484 15.0997 10.1517 15.7727 10.2454 16.4672C10.2559 16.5463 10.3238 16.6041 10.4018 16.6041C10.4089 16.6041 10.4157 16.6037 10.4232 16.6026C10.5102 16.5906 10.5706 16.5111 10.5589 16.4245C10.4727 15.7849 10.2045 15.1814 9.79302 14.6891C10.5341 13.7749 11.5668 14.1774 12.2557 14.4461ZM10.9443 19.2136L11.2965 19.5658L11.0433 19.819L10.6912 19.4667L10.9443 19.2136ZM11.4082 19.6775L11.155 19.9307L11.1586 19.9343C11.1894 19.9651 11.1894 20.0153 11.1586 20.0461C11.1282 20.0765 11.0784 20.0772 11.0469 20.0461L11.0433 20.0425L10.8605 20.2253C10.8451 20.2406 10.8249 20.2485 10.8046 20.2485C10.7844 20.2485 10.7641 20.2406 10.7487 20.2253C10.718 20.1945 10.718 20.1443 10.7487 20.1135L10.9316 19.9307L10.5795 19.5784L10.3186 19.8392C10.3987 19.9239 10.4805 20.0081 10.5622 20.0923L10.5923 20.1234C10.6834 20.2168 10.775 20.3108 10.8655 20.4065C11.1233 20.2685 11.3709 20.0899 11.5974 19.8634C11.5917 19.8599 11.5862 19.8556 11.5809 19.8503L11.4082 19.6775ZM9.29798 8.85328L9.60768 9.16299L9.44961 9.32107L9.16365 9.03511L9.27607 8.92269C9.29488 8.90388 9.30219 8.87776 9.29798 8.85328ZM9.69027 9.30389L9.56128 9.43288C9.58936 9.4638 9.58847 9.512 9.55863 9.54184C9.54326 9.55759 9.52301 9.56509 9.50276 9.56509C9.48371 9.56509 9.46466 9.55812 9.44967 9.54449L9.18997 9.80419C9.17685 9.81764 9.16017 9.82507 9.14297 9.82696C9.14348 9.84785 9.1358 9.86891 9.11993 9.88478C9.10456 9.90015 9.08468 9.90802 9.06406 9.90802C9.04381 9.90802 9.02356 9.90015 9.00818 9.88478L8.66108 9.53768L8.30701 9.89175L8.41724 10.002L8.4272 10.0022L8.43054 10.0023C8.61716 10.0064 8.79266 10.0103 8.95667 9.97298C9.28583 9.89771 9.56077 9.63197 9.69027 9.30389ZM9.0519 9.14686L9.33786 9.43281L9.07823 9.69245C9.0714 9.69928 9.06608 9.70707 9.06229 9.71539L8.77283 9.42593L9.0519 9.14686ZM20.2963 14.2474C20.0287 15.2918 19.7538 16.3713 19.8885 17.4501C19.9999 18.3414 20.5203 19.5118 21.6205 19.877C21.6258 19.8787 21.631 19.8807 21.636 19.883C22.178 19.3102 22.658 18.7269 22.7066 17.9675C22.7111 17.8936 22.7678 17.8331 22.8389 17.8213L23.0347 17.6255L22.9169 17.5078C22.8861 17.4771 22.8861 17.4268 22.9169 17.3961C22.9476 17.3653 22.9979 17.3653 23.0286 17.3961L23.1464 17.5138L23.5676 17.0926C23.5751 17.0851 23.5837 17.0794 23.5929 17.0756C23.6234 17.0566 23.6643 17.0603 23.6907 17.0867L24.0253 17.4213L24.4984 16.9481L24.4617 16.9113C24.4309 16.8806 24.4309 16.8303 24.4617 16.7996C24.4924 16.7689 24.5427 16.7689 24.5734 16.7996L24.6102 16.8363L25.0266 16.4199C25.0574 16.3892 25.1076 16.3892 25.1384 16.4199C25.1691 16.4507 25.1691 16.5009 25.1384 16.5317L24.7219 16.9481L25.1263 17.3524L25.6637 16.8149C25.5948 16.7456 25.5344 16.6834 25.5013 16.6493L25.4768 16.6242C25.4461 16.5935 25.4461 16.5432 25.4768 16.5125C25.5076 16.4817 25.5578 16.4817 25.5886 16.5125L25.7773 16.7012L26.1711 16.3074C26.2018 16.2767 26.2521 16.2767 26.2828 16.3074C26.3136 16.3382 26.3136 16.3884 26.2828 16.4192L25.8891 16.813L26.0948 17.0187C26.1447 17.0682 26.109 17.1537 26.0389 17.1537C26.0141 17.1537 25.8969 17.0453 25.7757 16.9264L25.238 17.4642L25.2608 17.4869C25.2886 17.5148 25.2913 17.5587 25.2686 17.5895C26.2559 17.2306 27.1323 16.5617 27.6774 15.6827C27.5224 14.4924 27.3237 13.4267 27.0721 12.4494C27.0412 12.4747 26.9954 12.4732 26.9662 12.444L26.7539 12.2319L26.6254 12.3604C26.5946 12.3907 26.5448 12.3911 26.5136 12.3604C26.4829 12.3296 26.4829 12.2794 26.5136 12.2486L26.6421 12.1202L26.4915 11.9697C26.418 11.8962 26.5294 11.7837 26.6033 11.8579L26.7539 12.0084L26.8519 11.9104C26.8728 11.8895 26.8968 11.8836 26.9188 11.8874C26.8882 11.7814 26.8569 11.6764 26.8249 11.5724C26.8009 11.5762 26.7752 11.5689 26.7565 11.5502L26.6371 11.4308L26.4782 11.5897C26.404 11.664 26.293 11.5515 26.3665 11.478L26.5254 11.319L26.4233 11.2169C26.3788 11.2259 26.3267 11.2004 26.3267 11.1403C26.3267 11.1231 26.326 11.1048 26.3253 11.0863C26.3217 10.9912 26.3179 10.8902 26.4058 10.8902C26.485 10.8902 26.4898 10.9722 26.4873 11.058C26.4893 11.0597 26.4913 11.0615 26.4933 11.0634L26.6371 11.2073L26.6907 11.1537C26.6695 11.0904 26.6481 11.0274 26.6263 10.9647C26.614 10.9612 26.6024 10.9546 26.5927 10.9448L26.3991 10.7513L26.3307 10.8197C26.3 10.8504 26.2498 10.8508 26.219 10.8197C26.1619 10.7626 26.2206 10.699 26.2858 10.6379L26.1832 10.5353C26.1524 10.5046 26.1524 10.4543 26.1832 10.4236C26.2143 10.3925 26.2645 10.3928 26.2949 10.4236L26.4472 10.5759C26.4532 10.5805 26.4586 10.5859 26.4632 10.5919L26.5093 10.6379C26.4143 10.381 26.3142 10.1296 26.2089 9.88285C25.8587 9.06202 25.432 8.2438 24.6854 7.81632C24.1945 7.53509 23.6163 7.47621 23.1382 7.65846C21.9011 8.13056 22.0148 9.73924 23.0433 9.97397C23.2097 10.0116 23.3885 10.0074 23.5728 10.0031C23.8163 9.99743 24.0693 9.99152 24.3156 10.0816C24.9546 10.3156 25.2032 11.0569 25.1661 11.688C25.1462 12.0214 25.0667 12.3446 24.9895 12.6574L24.9862 12.6708C24.9265 12.9141 24.8648 13.1652 24.8354 13.4126C24.7799 13.8862 24.8774 14.5345 25.3367 14.8026C25.4121 14.8465 25.4376 14.9436 25.3937 15.019C25.3495 15.0944 25.2524 15.1199 25.1774 15.076C24.7204 14.8093 24.5359 14.2949 24.5082 13.7996C23.8439 13.8687 23.1921 14.1644 22.7059 14.6203C22.1944 15.0995 21.8475 15.7726 21.7542 16.4667C21.7437 16.5462 21.6758 16.6039 21.5978 16.6039C21.5907 16.6039 21.5836 16.6036 21.5764 16.6024C21.4898 16.5908 21.4291 16.5113 21.4407 16.4247C21.5266 15.7849 21.7944 15.1816 22.206 14.6892C21.645 13.9961 20.9161 14.0592 20.2963 14.2474ZM26.9586 12.0272L26.8656 12.1201L27.0285 12.2828C27.0056 12.1969 26.9823 12.1117 26.9586 12.0272ZM24.6102 17.0598L25.0146 17.4642L24.7263 17.7526C24.4182 17.8263 24.1037 17.8701 23.7887 17.8813L24.0253 17.6448L24.1752 17.7947C24.2063 17.8258 24.2566 17.8254 24.2869 17.7947C24.3177 17.7639 24.3177 17.7137 24.2869 17.6829L24.137 17.533L24.6102 17.0598ZM25.1846 17.6192C25.1346 17.6364 25.0844 17.6528 25.0339 17.6684L25.1263 17.576L25.149 17.5987C25.1593 17.609 25.1716 17.6158 25.1846 17.6192ZM23.563 17.8836L23.5657 17.8808L23.9135 17.533L23.6321 17.2516L23.2582 17.6255L23.5155 17.8827L23.563 17.8836ZM23.2796 17.8704C23.1993 17.864 23.1191 17.8554 23.0392 17.8445L23.1464 17.7372L23.2796 17.8704Z" fill="white"/>
</g>
<defs>
<clipPath id="clip0_3404_31247">
<rect width="24" height="24" fill="white" transform="translate(4 4)"/>
</clipPath>
</defs>
</svg>
