<svg width="36" height="24" viewBox="0 0 36 24" fill="none" xmlns="http://www.w3.org/2000/svg">
<g clip-path="url(#clip0_3540_27387)">
<path d="M0 3C0 1.34315 1.34315 0 3 0H33C34.6569 0 36 1.34315 36 3V21C36 22.6569 34.6569 24 33 24H3C1.34315 24 0 22.6569 0 21V3Z" fill="#CCEFFF"/>
<path d="M21.9368 19.0772H14.0625V4.92578H21.9368V19.0772Z" fill="#6C6BBD"/>
<path d="M14.5668 12C14.5668 9.12932 15.9108 6.57219 18.0039 4.92428C16.4733 3.71924 14.5416 3 12.4422 3C7.47216 3 3.44336 7.02937 3.44336 12C3.44336 16.9706 7.47216 21 12.4422 21C14.5416 21 16.4733 20.2808 18.0039 19.0757C15.9108 17.4278 14.5668 14.8707 14.5668 12Z" fill="#EB001B"/>
<path d="M32.5568 12C32.5568 16.9706 28.5279 21 23.5579 21C21.4585 21 19.5268 20.2808 17.9956 19.0757C20.0893 17.4278 21.4333 14.8707 21.4333 12C21.4333 9.12932 20.0893 6.57219 17.9956 4.92428C19.5268 3.71924 21.4585 3 23.5579 3C28.5279 3 32.5568 7.02937 32.5568 12Z" fill="#0099DF"/>
</g>
<path d="M2 1H34V-1H2V1ZM35 2V22H37V2H35ZM34 23H2V25H34V23ZM1 22V2H-1V22H1ZM2 23C1.44772 23 1 22.5523 1 22H-1C-1 23.6569 0.343148 25 2 25V23ZM35 22C35 22.5523 34.5523 23 34 23V25C35.6569 25 37 23.6569 37 22H35ZM34 1C34.5523 1 35 1.44772 35 2H37C37 0.343145 35.6569 -1 34 -1V1ZM2 -1C0.343146 -1 -1 0.343145 -1 2H1C1 1.44772 1.44772 1 2 1V-1Z" fill="white"/>
<defs>
<clipPath id="clip0_3540_27387">
<path d="M0 2C0 0.89543 0.895431 0 2 0H34C35.1046 0 36 0.895431 36 2V22C36 23.1046 35.1046 24 34 24H2C0.895432 24 0 23.1046 0 22V2Z" fill="white"/>
</clipPath>
</defs>
</svg>
