<svg width="36" height="24" viewBox="0 0 36 24" fill="none" xmlns="http://www.w3.org/2000/svg">
<g clip-path="url(#clip0_3540_27380)">
<path d="M0 3C0 1.34315 1.34315 0 3 0H33C34.6569 0 36 1.34315 36 3V21C36 22.6569 34.6569 24 33 24H3C1.34315 24 0 22.6569 0 21V3Z" fill="#FDEACE"/>
<path d="M21.7556 4.89524L14.0088 4.92188L14.2435 19.1042L21.9903 19.0776L21.7556 4.89524Z" fill="#FF5F00"/>
<path d="M14.5187 12.0421C14.4708 9.15755 15.763 6.59448 17.787 4.93195C16.2592 3.73312 14.3439 3.01222 12.2677 3.01933C7.34906 3.03618 3.43674 7.08822 3.51969 12.0798C3.60264 17.0714 7.64918 21.0962 12.5678 21.0793C14.6441 21.0722 16.5352 20.3383 18.0229 19.1291C15.9443 17.5057 14.5667 14.9267 14.5187 12.0421Z" fill="#EB001B"/>
<path d="M32.4797 11.9202C32.5626 16.9118 28.6503 20.9638 23.7316 20.9806C21.6554 20.9878 19.7401 20.2669 18.2124 19.068C20.2611 17.4054 21.5286 14.8424 21.4806 11.9578C21.4327 9.07327 20.0554 6.51934 17.9764 4.87087C19.4642 3.66171 21.3553 2.92777 23.4315 2.92066C28.3502 2.90381 32.3971 6.95368 32.4797 11.9202Z" fill="#F79E1B"/>
</g>
<path d="M2 1H34V-1H2V1ZM35 2V22H37V2H35ZM34 23H2V25H34V23ZM1 22V2H-1V22H1ZM2 23C1.44772 23 1 22.5523 1 22H-1C-1 23.6569 0.343148 25 2 25V23ZM35 22C35 22.5523 34.5523 23 34 23V25C35.6569 25 37 23.6569 37 22H35ZM34 1C34.5523 1 35 1.44772 35 2H37C37 0.343145 35.6569 -1 34 -1V1ZM2 -1C0.343146 -1 -1 0.343145 -1 2H1C1 1.44772 1.44772 1 2 1V-1Z" fill="white"/>
<defs>
<clipPath id="clip0_3540_27380">
<path d="M0 2C0 0.89543 0.895431 0 2 0H34C35.1046 0 36 0.895431 36 2V22C36 23.1046 35.1046 24 34 24H2C0.895432 24 0 23.1046 0 22V2Z" fill="white"/>
</clipPath>
</defs>
</svg>
