<svg width="36" height="24" viewBox="0 0 36 24" fill="none" xmlns="http://www.w3.org/2000/svg">
<g clip-path="url(#clip0_3540_27396)">
<path d="M0 3C0 1.34315 1.34315 0 3 0H33C34.6569 0 36 1.34315 36 3V21C36 22.6569 34.6569 24 33 24H3C1.34315 24 0 22.6569 0 21V3Z" fill="#D8DDF3"/>
<path d="M24.1914 7.52441C24.1914 7.62067 24.1914 7.71693 24.0952 7.81319C23.3251 11.6635 20.8224 12.9148 17.5497 12.9148H15.9133C15.5283 12.9148 15.1433 13.2036 15.1433 13.5886L14.277 18.979L14.0845 20.5191C14.0845 20.8078 14.277 21.0004 14.4695 21.0004H17.4535C17.8385 21.0004 18.1273 20.7116 18.1273 20.4228V20.2303L18.7048 16.7651V16.5725C18.8011 16.1875 19.0898 15.995 19.3786 15.995H19.8599C22.7476 15.995 24.9615 14.8399 25.539 11.4709C25.8278 10.0271 25.6353 8.87201 24.9615 8.10196C24.769 7.90944 24.4802 7.71693 24.1914 7.52441Z" fill="#2199D6"/>
<path d="M23.4216 7.23506C23.3254 7.23506 23.2291 7.1388 23.0366 7.1388C22.9403 7.1388 22.7478 7.04254 22.6516 7.04254C22.1703 6.94629 21.689 6.94629 21.2077 6.94629H16.7799C16.6837 6.94629 16.5874 6.94629 16.4911 7.04254C16.2986 7.1388 16.1061 7.33131 16.1061 7.52383L15.1436 13.4917V13.6843C15.2398 13.2992 15.5286 13.0105 15.9136 13.0105H17.55C20.8227 13.0105 23.3254 11.6629 24.0954 7.90886C24.0954 7.8126 24.0954 7.71634 24.1917 7.62009C23.9992 7.52383 23.8066 7.42757 23.6141 7.33132C23.5179 7.23506 23.4216 7.23506 23.4216 7.23506Z" fill="#252C5E"/>
<path d="M16.106 7.52406C16.106 7.33155 16.2985 7.13904 16.491 7.04278C16.5872 7.04278 16.6835 6.94652 16.7798 6.94652H21.2076C21.6888 6.94652 22.2664 6.94652 22.6514 7.04278C22.7477 7.04278 22.9402 7.04278 23.0365 7.13904C23.1327 7.13904 23.229 7.23529 23.4215 7.23529C23.5177 7.23529 23.5177 7.2353 23.614 7.33155C23.8065 7.42781 23.999 7.52406 24.1915 7.62032C24.384 6.17647 24.1915 5.2139 23.4215 4.34759C22.5552 3.38502 21.0151 3 19.0899 3H13.4108C13.0258 3 12.6407 3.28877 12.6407 3.67379L10.3306 18.4973C10.3306 18.7861 10.5231 19.0749 10.8119 19.0749H14.2771L15.1434 13.492L16.106 7.52406Z" fill="#263577"/>
</g>
<path d="M2 1H34V-1H2V1ZM35 2V22H37V2H35ZM34 23H2V25H34V23ZM1 22V2H-1V22H1ZM2 23C1.44772 23 1 22.5523 1 22H-1C-1 23.6569 0.343148 25 2 25V23ZM35 22C35 22.5523 34.5523 23 34 23V25C35.6569 25 37 23.6569 37 22H35ZM34 1C34.5523 1 35 1.44772 35 2H37C37 0.343145 35.6569 -1 34 -1V1ZM2 -1C0.343146 -1 -1 0.343145 -1 2H1C1 1.44772 1.44772 1 2 1V-1Z" fill="white"/>
<defs>
<clipPath id="clip0_3540_27396">
<path d="M0 2C0 0.89543 0.895431 0 2 0H34C35.1046 0 36 0.895431 36 2V22C36 23.1046 35.1046 24 34 24H2C0.895432 24 0 23.1046 0 22V2Z" fill="white"/>
</clipPath>
</defs>
</svg>
