<svg width="45" height="52" viewBox="0 0 45 52" fill="none" xmlns="http://www.w3.org/2000/svg">
<path d="M13.0246 10.3557L12.3773 11.0749L12.4732 11.1469C12.4732 11.1469 13.0006 11.6264 13.8638 12.034L12.8808 13.7842L13.7439 14.2637L14.7988 12.3936C14.9427 12.4416 15.1105 12.4895 15.2544 12.5135L14.2953 14.5515L15.1825 14.983L16.2854 12.6574C16.645 12.6813 17.0286 12.6334 17.4122 12.5614L16.5731 14.5754L17.4842 14.9591L18.683 12.0819C19.1385 11.8422 19.5701 11.5305 19.9777 11.1229L20.0736 11.051L19.4022 10.3317L19.3063 10.4036C16.3573 13.2328 13.2404 10.5475 13.1205 10.4276L13.0246 10.3557Z" fill="#AC3964"/>
<path d="M26.667 12.1059L27.8658 14.983L28.7769 14.5994L27.9377 12.5854C28.2974 12.6574 28.681 12.7053 29.0646 12.6813L30.1675 15.007L31.0546 14.5754L30.0956 12.5375C30.2634 12.5135 30.4072 12.4655 30.5511 12.4176L31.6061 14.2877L32.4692 13.8082L31.4862 12.058C32.3493 11.6504 32.8768 11.1708 32.8768 11.1708L32.9727 11.0989L32.3253 10.3557L32.2294 10.4276C32.1095 10.5475 28.9927 13.2328 26.0916 10.4516L25.9957 10.3796L25.3243 11.0989L25.4202 11.1708C25.7799 11.5305 26.2114 11.8661 26.667 12.1059Z" fill="#AC3964"/>
<path d="M12.0656 29.8961C12.7369 24.7173 12.2334 19.9221 12.2334 19.8741L12.2094 19.7543L11.2264 19.8741L11.2504 19.994C11.2504 20.042 11.7539 24.7173 11.0826 29.8002C10.4832 34.4036 8.75688 40.2538 3.98564 42.076L3.86576 42.1239L4.2254 43.035L4.34528 42.9871C6.67096 42.0999 8.51712 40.3017 9.85977 37.6644C10.9147 35.5545 11.658 32.9651 12.0656 29.8961Z" fill="#AC3964"/>
<path d="M15.0386 25.029V24.9091L14.0556 24.9331V25.053C14.3433 35.4825 8.7329 42.1239 8.68495 42.1958L8.61302 42.2917L9.35628 42.9391L9.4282 42.8432C9.50013 42.7713 10.9387 41.069 12.3533 38.024C13.672 35.1948 15.1825 30.6634 15.0386 25.029Z" fill="#AC3964"/>
<path d="M34.4832 29.7762C33.8118 24.7173 34.3153 20.018 34.3153 19.97L34.3393 19.8502L33.3563 19.7303L33.3323 19.8502C33.3323 19.8981 32.8049 24.6694 33.5002 29.8722C33.9077 32.9411 34.651 35.5545 35.706 37.6164C37.0486 40.2538 38.8948 42.052 41.2204 42.9391L41.3403 42.9871L41.7 42.076L41.5801 42.028C36.8089 40.2298 35.0826 34.3557 34.4832 29.7762Z" fill="#AC3964"/>
<path d="M31.5101 25.053V24.9331L30.5271 24.9091V25.029C30.3833 30.6873 31.8938 35.2188 33.2124 38.024C34.627 41.069 36.0896 42.7713 36.1375 42.8432L36.2095 42.9391L36.9527 42.2917L36.8808 42.1958C36.8328 42.1239 31.2464 35.4825 31.5101 25.053Z" fill="#AC3964"/>
<path d="M44.697 39.6304C42.6111 39.3427 40.8848 38.3117 39.5661 36.5135C38.7989 35.4586 38.1515 34.1399 37.648 32.5814C38.2714 32.2218 38.8468 31.8142 39.3263 31.3826C39.3743 31.4306 39.4222 31.4785 39.4942 31.5265C39.8778 31.8382 40.693 32.3417 41.5561 32.3417C41.8678 32.3417 42.1555 32.2698 42.4192 32.1499C42.9947 31.8861 43.618 31.2628 43.642 30.5435C43.642 29.8722 43.2105 29.2728 42.4192 28.8652C43.1625 28.6254 43.9777 28.1699 44.3373 27.2588C44.5771 26.5874 44.6011 25.6044 44.0256 25.029C43.4502 24.4296 42.4672 24.3337 41.3883 24.7892C42.2994 23.3267 42.4672 21.9121 41.7959 21.1449C41.2204 20.4735 40.1415 20.4016 39.3743 20.6174C38.2714 20.9291 37.4562 21.984 37.1445 23.6144C37.0726 23.9501 37.0486 24.3337 37.0486 24.6933C36.8089 24.7653 36.5691 24.8851 36.3533 25.029C35.8498 17.3327 37.1925 9.51649 37.1925 9.44456L37.2644 8.96504L36.8089 8.86914C34.0996 8.31769 31.5341 7.31069 29.1605 5.87213C28.2254 5.29671 27.3143 4.64935 26.4272 3.95405C26.3073 3.85814 26.1875 3.73826 26.0676 3.64236L25.9957 3.59441C24.9647 2.73127 24.0056 1.77223 23.1425 0.741258L22.7589 0.285713L22.3753 0.717282C21.4642 1.74825 20.4572 2.73127 19.4022 3.61838C19.1865 3.78622 18.9946 3.93007 18.8508 4.07393C18.0596 4.69731 17.2204 5.27273 16.3573 5.77623C13.9357 7.23877 11.2983 8.26974 8.51711 8.84516L8.06157 8.94107L8.1335 9.42059C8.1335 9.46854 9.11652 15.055 9.09254 21.4805C8.92471 21.3846 8.75688 21.3127 8.58904 21.2648C8.61302 20.8332 8.58904 20.4016 8.49314 19.994C8.1335 18.1958 7.24638 17.021 5.99963 16.6614C5.16047 16.4216 3.96167 16.4935 3.33829 17.2368C2.57106 18.1239 2.81082 19.7543 3.91371 21.4326C2.69094 20.9291 1.44418 21.001 0.796828 21.6484C0.173451 22.2957 0.197427 23.3746 0.461163 24.0939C0.868756 25.1489 1.85177 25.6763 2.73889 25.9401C1.77985 26.3956 1.2284 27.1149 1.2284 27.8582C1.2284 28.6494 1.9237 29.3207 2.57106 29.6324C2.85877 29.7763 3.17046 29.8242 3.50612 29.8242C4.48914 29.8242 5.35228 29.2488 5.80782 28.9131C5.87975 28.8652 5.95168 28.7932 6.04758 28.7213C6.69494 29.2967 7.46217 29.8242 8.27735 30.2797C7.7259 32.8692 6.86277 34.979 5.73589 36.4895C4.41721 38.2877 2.69094 39.3427 0.605019 39.6064L0.485139 39.6304L0.605019 40.6134L0.7249 40.5894C3.07455 40.2778 5.01661 39.1029 6.50313 37.065C8.75688 33.996 9.9317 29.057 10.0516 22.3437V22.2478C10.0516 21.4326 10.0516 20.7133 10.0516 20.018C9.95568 15.2228 9.35628 11.027 9.16447 9.68432C9.69194 9.56444 10.2194 9.42059 10.7709 9.25276C10.7948 10.4516 11.0106 13.976 12.2094 17.7163C13.2164 20.8332 14.679 23.2787 16.5491 25.053C17.0766 30.4476 14.9667 33.4206 14.9427 33.4686L14.8708 33.5645L15.662 34.1399L15.7339 34.044C15.8298 33.9241 17.8438 31.1189 17.604 25.9401C19.1145 27.043 20.8408 27.7623 22.7349 28.026H22.8788C24.7489 27.7623 26.4512 27.067 27.9377 25.988C27.7219 31.1429 29.7119 33.9241 29.8078 34.044L29.8798 34.1399L30.671 33.5645L30.5991 33.4686C30.5751 33.4446 28.4892 30.4955 28.9927 25.1489C30.9107 23.3986 32.3973 20.9051 33.4282 17.7403C34.6031 14.0719 34.8188 10.5954 34.8668 9.37263C35.3223 9.49252 35.7539 9.6124 36.1375 9.7083C35.9217 11.051 35.3223 15.2468 35.2504 20.042C35.1066 27.9301 36.2814 33.6604 38.7989 37.0889C40.2854 39.1029 42.2274 40.3017 44.5771 40.6134L44.697 40.6374L44.8169 39.6544L44.697 39.6304ZM38.0796 23.7583C38.2234 23.039 38.6071 21.8162 39.6141 21.5285C40.0936 21.3846 40.7409 21.4326 41.0047 21.7443C41.2204 21.984 41.2204 22.5355 41.0286 23.1349C40.8129 23.8062 40.3813 24.5255 39.7819 25.2208C39.5421 25.005 38.9907 24.5974 38.1995 24.5015C38.1275 24.5015 38.0796 24.5015 38.0077 24.4775C38.0077 24.2618 38.0316 23.998 38.0796 23.7583ZM39.9977 27.4506C39.9977 27.4985 40.0216 27.5705 40.0456 27.6664C40.0456 27.6903 40.1415 28.3377 39.9257 29.057C39.7819 29.5365 38.9667 30.6634 37.3843 31.5984C36.9527 30.016 36.641 28.1938 36.4492 26.1798C36.7129 25.9161 37.3363 25.4126 38.1036 25.4845C38.679 25.5565 39.0626 25.8921 39.1825 25.988C39.3983 26.2278 39.8298 26.7073 39.9977 27.4506ZM41.0286 28.0979C41.0286 27.7623 41.0047 27.5465 41.0047 27.5225C40.9807 27.4026 40.9567 27.3067 40.9567 27.2348C40.8848 26.9231 40.7649 26.6114 40.621 26.2997C41.7959 25.3167 42.9467 25.3167 43.3064 25.6763C43.5461 25.9161 43.5461 26.4915 43.4023 26.8751C43.0666 27.7623 41.8678 28.002 41.3403 28.0739C41.2444 28.0979 41.1485 28.0979 41.0286 28.0979ZM40.8368 29.3447C42.0117 29.5125 42.635 30.1359 42.635 30.5195C42.635 30.7832 42.2994 31.0949 41.9877 31.2388C41.2924 31.5505 40.4292 30.9751 40.0696 30.7113C40.0456 30.6873 40.0216 30.6634 39.9977 30.6634C40.4292 30.2078 40.7169 29.7523 40.8368 29.3447ZM25.3963 4.76923H25.3483C24.9167 4.67333 24.4852 4.55345 24.1015 4.36164L23.694 4.19381L23.4782 4.57743C23.3103 4.86514 23.0226 5.24875 22.663 5.34466C22.2794 5.24875 22.0156 4.86514 21.8478 4.57743L21.632 4.19381L21.2004 4.36164C20.7929 4.52947 20.3853 4.67333 19.9297 4.76923C19.7379 4.81719 19.5701 4.84116 19.4022 4.86514C19.4262 4.84116 19.4742 4.79321 19.5221 4.76923C20.673 3.85814 21.7519 2.85115 22.7349 1.7962C23.646 2.82717 24.653 3.78622 25.7319 4.67333C25.8038 4.74526 25.8997 4.81719 25.9717 4.88911C25.7559 4.84116 25.5161 4.79321 25.3963 4.76923ZM20.1695 5.72828C20.5291 5.65635 20.8888 5.56044 21.2244 5.41659C21.5841 5.89611 22.0156 6.2078 22.4951 6.3037C22.4951 6.3037 22.4951 6.3037 22.5191 6.3037V6.32768H22.8068V6.3037C22.8068 6.3037 22.8068 6.3037 22.8308 6.3037C23.3103 6.2078 23.7419 5.89611 24.1015 5.41659C24.4372 5.53647 24.7969 5.65635 25.1565 5.72828H25.2044C26.0916 5.92008 26.7389 6.01599 27.0986 5.68032C27.602 6.03996 28.1295 6.37563 28.657 6.71129C28.9207 6.87913 29.2084 7.02298 29.5201 7.21479C28.8968 7.23877 28.0816 7.26274 27.2664 7.38262C24.605 7.69431 23.2384 8.46154 23.1665 9.63637V18.1958C22.9027 18.3876 22.615 18.2917 22.4232 18.1718V9.6124C22.3513 8.43757 20.9847 7.67034 18.3233 7.35865C17.4362 7.26274 16.5491 7.21479 15.8538 7.19081C16.2134 6.99901 16.5491 6.8072 16.8848 6.61539C17.3163 6.32768 17.7958 6.03996 18.2754 5.7043C18.635 6.01599 19.3063 5.89611 20.1695 5.72828ZM21.4162 9.63637V18.6034L21.5841 18.7473C21.608 18.7712 21.9197 19.035 22.3513 19.1788C22.9747 19.3706 23.5741 19.2028 24.0296 18.7233L24.1495 18.5794V9.66035C24.2214 8.62938 27.698 8.07793 30.8868 8.17383H31.0067V7.95805C31.9417 8.38962 32.9008 8.77323 33.8838 9.1089C33.8598 10.02 33.7159 13.6883 32.4692 17.4765C31.654 19.994 30.5271 22.056 29.1365 23.6144C27.4342 25.5325 25.3003 26.6833 22.8068 27.067C20.3133 26.6833 18.1795 25.5325 16.4772 23.6144C15.0866 22.056 13.9597 19.994 13.1445 17.4765C11.8498 13.4965 11.7539 9.58842 11.7299 8.98902C12.6889 8.65335 13.624 8.29371 14.5351 7.86214V8.19781H14.655C17.8678 8.07793 21.3443 8.6054 21.4162 9.63637ZM7.34229 21.1209C6.40722 21.2168 5.78385 21.7203 5.54409 21.9601C3.98564 20.2098 3.57805 18.4835 4.10552 17.8841C4.41721 17.5245 5.20842 17.4765 5.75987 17.6204C6.9347 17.9561 7.39024 19.3706 7.55807 20.2098C7.60603 20.4975 7.65398 20.8092 7.63 21.1209C7.51012 21.1209 7.41422 21.1209 7.34229 21.1209ZM5.18444 24.6214C5.20842 24.5255 5.20842 24.4296 5.2324 24.3816C5.42421 23.5185 5.9277 22.9431 6.19144 22.6793C6.35927 22.5355 6.79084 22.1519 7.43819 22.1039C8.1335 22.032 8.70892 22.3437 9.09254 22.6314C9.04459 25.0769 8.8288 27.3067 8.49314 29.2488C6.5271 28.1459 5.52011 26.8032 5.35228 26.2038C5.06456 25.3886 5.18444 24.6454 5.18444 24.6214ZM4.36926 26.4676V26.4915C4.51312 26.9471 4.84878 27.4745 5.3283 28.026C5.28035 28.0739 5.2324 28.0979 5.18444 28.1459C4.80083 28.4576 3.79383 29.1289 2.95467 28.7453C2.59503 28.5774 2.18744 28.1938 2.18744 27.8582C2.23539 27.4026 2.97865 26.6594 4.36926 26.4676ZM4.27335 24.1659C4.24938 24.2378 4.2254 24.3337 4.20143 24.4775C4.20143 24.5015 4.15347 24.7653 4.17745 25.1968C4.03359 25.1968 3.88974 25.1968 3.76986 25.1728C3.19443 25.1009 1.77985 24.8132 1.39623 23.7822C1.2284 23.3267 1.2284 22.6554 1.51611 22.3437C1.94768 21.9121 3.31431 21.9121 4.68095 23.0869C4.48914 23.4226 4.34528 23.7822 4.27335 24.1659Z" fill="#AC3964"/>
<path d="M6.95867 27.5225L7.05458 27.5944L7.65398 26.9711L7.55807 26.8991C7.5341 26.8751 6.11951 25.4845 6.74289 24.1898L6.79084 24.07L6.02361 23.7103L5.97565 23.8302C5.08854 25.6763 6.86277 27.4506 6.95867 27.5225Z" fill="#AC3964"/>
<path d="M3.05058 28.2658C3.23596 28.2658 3.38624 28.1155 3.38624 27.9301C3.38624 27.7447 3.23596 27.5944 3.05058 27.5944C2.86519 27.5944 2.71491 27.7447 2.71491 27.9301C2.71491 28.1155 2.86519 28.2658 3.05058 28.2658Z" fill="#AC3964"/>
<path d="M3.74588 27.4746C3.84179 27.4746 3.93769 27.4266 3.98564 27.3547C4.05757 27.2827 4.08155 27.2108 4.08155 27.1149C4.08155 27.019 4.03359 26.9471 3.96167 26.8751C3.81781 26.7553 3.60203 26.7553 3.48215 26.8991C3.36227 27.043 3.36226 27.2588 3.50612 27.3786C3.57805 27.4506 3.67395 27.4746 3.74588 27.4746Z" fill="#AC3964"/>
<path d="M4.05757 27.7862C3.93769 27.9301 3.93769 28.1459 4.08155 28.2658C4.15347 28.3377 4.2254 28.3617 4.32131 28.3617C4.41721 28.3617 4.51311 28.3137 4.58504 28.2418C4.70492 28.0979 4.70492 27.8821 4.56107 27.7623C4.41721 27.6424 4.20143 27.6424 4.05757 27.7862Z" fill="#AC3964"/>
<path d="M2.18744 22.6793C2.11551 22.6314 2.04358 22.5834 1.94768 22.5834C1.85177 22.5834 1.77985 22.6314 1.73189 22.6793C1.61201 22.7992 1.61201 23.015 1.75587 23.1349C1.8278 23.1828 1.89973 23.2308 1.97165 23.2308C2.06756 23.2308 2.13949 23.2068 2.21141 23.1349C2.33129 23.015 2.30732 22.7992 2.18744 22.6793Z" fill="#AC3964"/>
<path d="M2.23539 23.8542C2.11551 23.974 2.11551 24.1898 2.25937 24.3097C2.3313 24.3577 2.40322 24.4056 2.47515 24.4056C2.57106 24.4056 2.64298 24.3816 2.71491 24.3097C2.83479 24.1898 2.83479 23.974 2.69094 23.8542C2.57106 23.7103 2.35527 23.7343 2.23539 23.8542Z" fill="#AC3964"/>
<path d="M3.36227 23.4945C3.41022 23.5185 3.48215 23.5425 3.5301 23.5425C3.55407 23.5425 3.57805 23.5425 3.60203 23.5425C3.69793 23.5185 3.74588 23.4706 3.79383 23.3986C3.84179 23.3267 3.84179 23.2308 3.84179 23.1589C3.84179 23.0869 3.76986 23.015 3.69793 22.9671C3.626 22.9191 3.5301 22.9191 3.45817 22.9191C3.36226 22.9431 3.31431 22.991 3.26636 23.063C3.21841 23.1349 3.21841 23.2308 3.21841 23.3027C3.24238 23.3746 3.29034 23.4466 3.36227 23.4945Z" fill="#AC3964"/>
<path d="M5.52011 20.0899C5.49613 19.994 5.44818 19.9461 5.37625 19.8981C5.30433 19.8502 5.20842 19.8502 5.13649 19.8502C5.04059 19.8741 4.99264 19.9221 4.94468 19.994C4.89673 20.066 4.89673 20.1619 4.89673 20.2338C4.89673 20.3057 4.96866 20.3776 5.04059 20.4256C5.08854 20.4496 5.16047 20.4735 5.20842 20.4735C5.2324 20.4735 5.25637 20.4735 5.28035 20.4735C5.37625 20.4496 5.42421 20.4016 5.47216 20.3297C5.52011 20.2578 5.54409 20.1619 5.52011 20.0899Z" fill="#AC3964"/>
<path d="M5.97565 18.987C6.1478 18.987 6.28734 18.8475 6.28734 18.6753C6.28734 18.5032 6.1478 18.3637 5.97565 18.3637C5.80351 18.3637 5.66397 18.5032 5.66397 18.6753C5.66397 18.8475 5.80351 18.987 5.97565 18.987Z" fill="#AC3964"/>
<path d="M4.8248 18.1479C4.68095 18.028 4.48914 18.052 4.36926 18.1958C4.32131 18.2677 4.29733 18.3397 4.29733 18.4356C4.29733 18.5315 4.34528 18.6034 4.41721 18.6514C4.46516 18.6993 4.53709 18.7233 4.60902 18.7233C4.633 18.7233 4.633 18.7233 4.65697 18.7233C4.75288 18.7233 4.8248 18.6753 4.87276 18.6034C4.92071 18.5315 4.94468 18.4596 4.94468 18.3637C4.94468 18.2917 4.89673 18.1958 4.8248 18.1479Z" fill="#AC3964"/>
<path d="M37.648 29.5844L37.5521 29.6564L38.2474 30.3517L38.3433 30.2797C38.4152 30.2078 40.0456 28.6014 39.2544 26.8991L39.2065 26.7792L38.3193 27.2108L38.3673 27.3307C38.8708 28.3856 37.672 29.5844 37.648 29.5844Z" fill="#AC3964"/>
<path d="M41.1485 30.2318C41.2204 30.3037 41.2924 30.3277 41.3883 30.3277C41.4602 30.3277 41.5321 30.3037 41.6041 30.2318C41.7239 30.1119 41.7479 29.9201 41.628 29.7762C41.5082 29.6564 41.3163 29.6324 41.1725 29.7523C41.1006 29.8002 41.0766 29.8961 41.0766 29.9681C41.0526 30.0879 41.1006 30.1838 41.1485 30.2318Z" fill="#AC3964"/>
<path d="M43.1385 25.9161C43.0906 25.8682 43.0187 25.8202 42.9227 25.8202C42.8508 25.8202 42.7549 25.8442 42.707 25.8921C42.659 25.9401 42.6111 26.012 42.6111 26.1079C42.6111 26.1798 42.635 26.2757 42.683 26.3237C42.7309 26.3956 42.8268 26.4196 42.8988 26.4196C42.9707 26.4196 43.0426 26.3956 43.0906 26.3477C43.1385 26.2997 43.1865 26.2278 43.1865 26.1319C43.2105 26.036 43.1865 25.9641 43.1385 25.9161Z" fill="#AC3964"/>
<path d="M42.659 26.8751C42.5152 26.8032 42.3233 26.8751 42.2514 27.019C42.1795 27.1629 42.2514 27.3547 42.3953 27.4266C42.4432 27.4506 42.4912 27.4506 42.5152 27.4506C42.5391 27.4506 42.5871 27.4506 42.6111 27.4266C42.683 27.4026 42.7549 27.3547 42.7789 27.2827C42.8029 27.2108 42.8268 27.1389 42.7789 27.043C42.7789 26.9711 42.7309 26.8991 42.659 26.8751Z" fill="#AC3964"/>
<path d="M41.8198 25.9161C41.676 25.8442 41.4842 25.8921 41.4123 26.036C41.3403 26.1798 41.3883 26.3717 41.5321 26.4436C41.5801 26.4676 41.628 26.4915 41.676 26.4915C41.7719 26.4915 41.8918 26.4436 41.9397 26.3477C42.0117 26.1798 41.9637 26.012 41.8198 25.9161Z" fill="#AC3964"/>
<path d="M40.1175 23.8302C40.1415 23.8302 40.1655 23.8302 40.1895 23.8302C40.3333 23.8302 40.4532 23.7343 40.4772 23.5904C40.5012 23.5185 40.4772 23.4226 40.4292 23.3746C40.3813 23.3027 40.3094 23.2548 40.2374 23.2308C40.0696 23.1828 39.9257 23.3027 39.8778 23.4466C39.8538 23.6384 39.9497 23.8062 40.1175 23.8302Z" fill="#AC3964"/>
<path d="M39.2065 22.8951C39.3743 22.8951 39.4942 22.7513 39.4942 22.5834C39.4942 22.4156 39.3503 22.2717 39.2065 22.2717C39.0626 22.2717 38.8948 22.4396 38.8948 22.5834C38.8948 22.7273 39.0386 22.8951 39.2065 22.8951Z" fill="#AC3964"/>
<path d="M40.3573 22.4156C40.4292 22.4156 40.4772 22.3916 40.5491 22.3437C40.621 22.2957 40.645 22.2238 40.669 22.1519C40.693 22.0799 40.645 21.984 40.5971 21.9361C40.5491 21.8642 40.4772 21.8402 40.4053 21.8162C40.3333 21.8162 40.2374 21.8402 40.1895 21.8881C40.1175 21.9361 40.0936 22.008 40.0696 22.0799C40.0456 22.1519 40.0936 22.2478 40.1415 22.2957C40.1895 22.3916 40.2614 22.4156 40.3573 22.4156Z" fill="#AC3964"/>
<path d="M41.4123 30.6394C41.3403 30.6394 41.2684 30.6634 41.1965 30.7113C41.1485 30.7593 41.1006 30.8312 41.1006 30.9031C41.1006 30.9751 41.1245 31.047 41.1725 31.1189C41.2204 31.1908 41.2924 31.2148 41.3643 31.2148H41.3883C41.4602 31.2148 41.5321 31.1908 41.5801 31.1429C41.628 31.0949 41.676 31.023 41.676 30.9511C41.676 30.8791 41.652 30.8072 41.6041 30.7353C41.5561 30.6634 41.4842 30.6394 41.4123 30.6394Z" fill="#AC3964"/>
<path d="M42.1315 30.8072C42.2994 30.8072 42.4192 30.6634 42.4192 30.5195C42.4192 30.3517 42.2754 30.2318 42.1315 30.2318C41.9637 30.2318 41.8438 30.3757 41.8438 30.5195C41.8438 30.6634 41.9637 30.8072 42.1315 30.8072Z" fill="#AC3964"/>
<path d="M19.69 21.984L19.4742 22.9431L19.594 22.9671C20.649 23.2068 21.7519 23.3507 22.8548 23.3507C23.9337 23.3507 25.0126 23.2308 26.0676 22.9671L26.1875 22.9431L25.9717 21.984L25.8518 22.008C24.8688 22.2478 23.8618 22.3677 22.8548 22.3677C21.8238 22.3677 20.7929 22.2478 19.8338 22.008L19.69 21.984Z" fill="#AC3964"/>
<path d="M27.5465 50.5395V51.6903L27.1869 51.7143C26.108 51.7143 25.4366 51.6903 24.5256 50.4196L21.6244 45.984L19.2748 46.032V51.5704H17.7883V37.2807H23.1589C26.084 37.2807 27.2828 39.4385 27.2828 41.6443C27.2828 43.8022 26.2039 45.9361 23.3507 45.96H23.2069L25.5805 49.5564C26.2998 50.6114 26.6594 50.5395 27.3307 50.5395H27.5465ZM19.2988 44.6653H23.087C25.101 44.6653 25.8442 43.1548 25.8442 41.6204C25.8442 40.1339 25.101 38.6234 23.1589 38.6234H19.2988V44.6653Z" fill="#AC3964"/>
</svg>
